<?xml version="1.0" encoding="UTF-8" standalone="no"?>
<svg
   xmlns:dc="http://purl.org/dc/elements/1.1/"
   xmlns:cc="http://creativecommons.org/ns#"
   xmlns:rdf="http://www.w3.org/1999/02/22-rdf-syntax-ns#"
   xmlns:svg="http://www.w3.org/2000/svg"
   xmlns="http://www.w3.org/2000/svg"
   width="26.458332mm"
   height="13.229166mm"
   viewBox="0 0 26.458332 13.229166"
   version="1.1"
   id="svg5321">
  <defs
     id="defs5315">
    <clipPath
       id="clipPath18"
       clipPathUnits="userSpaceOnUse">
      <path
         id="path16"
         d="M 0,600 H 600 V 0 H 0 Z" />
    </clipPath>
    <clipPath
       id="clipPath30"
       clipPathUnits="userSpaceOnUse">
      <path
         id="path28"
         d="M 0,600 H 600 V 0 H 0 Z" />
    </clipPath>
    <clipPath
       id="clipPath2693"
       clipPathUnits="userSpaceOnUse">
      <path
         id="path2691"
         d="M 0,70.866 H 70.866 V 0 H 0 Z" />
    </clipPath>
    <clipPath
       id="clipPath2853"
       clipPathUnits="userSpaceOnUse">
      <path
         id="path2851"
         d="M 0,70.866 H 70.866 V 0 H 0 Z" />
    </clipPath>
    <clipPath
       clipPathUnits="userSpaceOnUse"
       id="clipPath2853-9">
      <path
         d="M 0,70.866 H 70.866 V 0 H 0 Z"
         id="path2851-5" />
    </clipPath>
  </defs>
  <metadata
     id="metadata5318">
    <rdf:RDF>
      <cc:Work
         rdf:about="">
        <dc:format>image/svg+xml</dc:format>
        <dc:type
           rdf:resource="http://purl.org/dc/dcmitype/StillImage" />
        <dc:title></dc:title>
      </cc:Work>
    </rdf:RDF>
  </metadata>
  <g
     id="layer1"
     transform="matrix(0.60884761,0,0,0.60731219,-57.703226,-76.428126)">
    <g
       transform="matrix(0.31938215,0,0,-0.31938215,94.321964,148.05463)"
       id="g2845">
      <g
         id="g2847">
        <g
           clip-path="url(#clipPath2853)"
           id="g2849">
          <g
             transform="translate(38.2039,10.8486)"
             id="g2855">
            <path
               id="path2857"
               style="fill:#ffffff;fill-opacity:1;fill-rule:nonzero;stroke:none"
               d="m 0,0 -0.173,-0.084 h -4.763 l -1.642,2.943 h 4.586 l 0.173,0.084 20.425,35.575 1.559,-3.202 z M 2.165,25.879 2.337,25.795 2.944,22.851 1.125,19.301 0.518,22.59 0.345,22.678 h -11.337 l 1.904,3.201 z M -2.598,3.811 -18.349,31.249 h 3.807 l 4.068,-7.185 -0.867,-1.474 1.907,-3.546 2.337,-0.088 6.318,-11.771 z M 6.145,31.249 7.53,33.758 7.875,31.249 H 9.522 L -2.426,10.734 -6.839,18.956 h 7.964 l 1.991,3.895 -0.694,3.205 H -9.261 l -1.04,-1.735 -3.98,6.928 z m 5.453,3.719 -1.903,-3.462 H 8.136 L 7.615,34.968 Z M 7.787,36.007 7.269,35.14 7.442,34.104 6.145,31.678 5.626,35.401 7.269,38.345 Z m -31.245,2.598 H 7.096 L 5.454,35.574 H -25.361 Z M -7.446,3.811 h 1.129 L -6.839,3.032 -5.02,-0.257 H 0 l 20.426,35.573 c -0.261,0.603 -1.731,3.547 -1.731,3.547 H 9.434 L 7.964,36.269 7.357,38.863 H -23.63 l -2.077,-3.289 z M 0.345,22.678 0.518,22.59 2.337,25.795 2.165,25.879 Z M 0,0 -0.173,-0.084 -1.992,2.859 -1.819,2.943 Z m -35.747,21.727 c 0,-0.519 0.434,-0.952 0.952,-0.952 0.434,0 0.864,0.433 0.864,0.952 0,0.433 -0.43,0.863 -0.864,0.863 -0.518,0 -0.952,-0.43 -0.952,-0.863 m 63.618,0 c 0,-0.519 0.43,-0.952 0.952,-0.952 0.43,0 0.864,0.433 0.864,0.952 0,0.433 -0.434,0.863 -0.864,0.863 -0.522,0 -0.952,-0.43 -0.952,-0.863 m -64.485,2.337 v 0.434 c 0,0.084 0,0.257 0.261,0.257 h 3.201 c 0.261,0 0.261,-0.173 0.261,-0.257 v -0.434 h 0.172 v 1.903 h -0.172 v -0.433 c 0,-0.085 -0.088,-0.258 -0.346,-0.258 h -1.473 v 0.346 c 0,0.345 0.349,0.606 0.779,0.691 v 0.173 h -1.731 v -0.173 c 0.433,-0.085 0.694,-0.346 0.694,-0.691 v -0.346 h -1.385 c -0.261,0 -0.261,0 -0.261,0.258 v 0.606 c 0,0.261 0.088,0.518 0.261,0.779 0.173,0.088 0.518,0.261 0.952,0.346 v 0.172 l -1.386,-0.084 v -3.289 z m 0.173,5.71 c 2.253,-1.469 3.377,-2.164 3.462,-2.249 0.088,-0.088 0.176,-0.172 0.088,-0.433 h 0.172 l 0.261,1.473 -0.172,0.085 c -0.173,-0.779 -0.089,-0.952 -1.125,-0.172 l 0.257,1.558 0.779,0.172 c 0.089,0 0.346,-0.088 0.261,-0.518 l 0.173,-0.088 0.261,1.647 H -32.2 c 0,-0.261 -0.085,-0.35 -0.346,-0.435 l -3.895,-0.778 c -0.173,-0.089 -0.173,-0.173 0,-0.262 m 2.686,0.173 -0.261,-1.382 -1.731,0.953 z m -1.128,5.282 c -0.346,-0.434 -0.518,-0.607 -0.606,-0.953 -0.346,-1.039 0.349,-2.076 1.646,-2.421 1.124,-0.349 2.076,0.345 2.422,1.297 0.261,0.779 -0.173,1.47 -0.952,1.904 -0.085,0 -0.173,-0.088 -0.085,-0.173 0.691,-0.434 1.125,-0.952 0.864,-1.731 -0.084,-0.694 -0.952,-0.952 -2.076,-0.606 -1.386,0.345 -1.819,1.04 -1.559,1.642 0.089,0.261 0.261,0.522 0.519,0.695 0.261,0.085 0.694,0.173 1.128,0.173 l 0.084,0.084 -1.642,0.522 v -0.173 z m 0.349,1.297 c 0.346,0.694 0,0.867 1.731,-0.085 0.864,-0.434 1.382,-0.606 1.643,-0.606 0.433,0 1.819,0.779 1.385,2.249 -0.088,0.261 -0.345,0.521 -0.779,0.695 l -1.819,0.863 c -0.346,0.261 -0.43,0.434 -0.173,0.867 l -0.257,0.173 -0.695,-1.474 0.261,-0.172 c 0.258,0.606 0.258,0.606 0.864,0.261 2.771,-1.125 2.51,-1.559 2.165,-2.25 -0.258,-0.606 -0.434,-0.694 -0.864,-0.694 -0.173,0 -0.695,0.173 -1.558,0.606 -0.779,0.434 -1.213,0.606 -1.301,0.691 0,0.088 0.088,0.261 0.261,0.607 l -0.173,0.172 -0.867,-1.815 z m 2.161,4.501 c 0.349,0.607 0.088,0.692 1.907,-0.433 1.988,-1.125 1.643,-0.952 1.298,-1.558 l 0.084,-0.085 1.819,2.856 -1.297,0.952 -0.088,-0.173 c 0.779,-0.691 0.952,-1.125 0.606,-1.731 -0.606,-0.952 -0.173,-0.952 -2.164,0.172 -1.816,1.125 -1.559,0.952 -1.125,1.647 l -0.173,0.085 -1.04,-1.643 z m 3.116,2.422 0.089,0.177 c -0.952,1.73 -0.173,1.903 0,1.73 1.642,-1.385 2.51,-2.164 2.51,-2.252 0.084,-0.084 0,-0.173 -0.261,-0.43 l 0.172,-0.176 1.125,1.385 -0.173,0.173 c -0.173,-0.258 -0.345,-0.43 -0.43,-0.43 -0.088,0.084 -0.867,0.779 -2.51,2.161 -0.349,0.349 0,1.213 1.643,0.172 l 0.088,0.261 -1.213,0.952 -2.076,-2.594 z m 2.599,5.454 c 1.124,-2.422 1.642,-3.719 1.558,-3.895 0,-0.085 -0.088,-0.258 -0.173,-0.346 l 0.173,-0.084 1.036,1.036 -0.084,0.173 c -0.607,-0.779 -0.779,-0.173 -0.868,0.088 l -0.172,0.434 1.124,1.124 c 1.386,-0.695 1.04,-0.518 0.606,-0.952 l 0.173,-0.088 1.213,1.125 -0.173,0.088 c -0.172,-0.173 -0.345,-0.261 -0.518,-0.173 l -3.638,1.643 c -0.173,0.088 -0.346,0.088 -0.257,-0.173 m 2.337,-1.385 -1.04,-1.037 -0.779,1.815 z m 2.076,4.59 c -0.433,0 -2.425,-0.434 -1.297,-2.08 0.345,-0.43 0.864,-0.43 1.643,-0.173 1.212,0.434 1.212,0.434 1.558,0.088 0.345,-0.345 0.173,-0.867 -0.261,-1.213 -0.603,-0.345 -1.297,-0.345 -1.988,0.346 l -0.173,-0.173 0.864,-1.297 0.261,0.172 0.084,0.518 c 1.301,-0.429 1.908,1.386 1.474,1.993 -0.522,0.694 -0.868,0.606 -1.992,0.172 -0.606,-0.172 -1.731,-0.345 -1.47,0.607 0.173,0.779 1.125,1.04 2.161,0.261 l 0.176,0.084 -0.955,1.125 -0.085,-0.085 z m 4.932,-0.522 c 0,-0.43 -0.084,-0.691 -0.345,-0.779 v -0.173 l 1.297,0.606 -0.085,0.173 c -0.345,-0.257 -0.606,-0.518 -0.606,0.867 l 1.385,0.691 c 1.041,-0.779 1.041,-0.779 0.434,-1.036 v -0.177 l 1.47,0.695 -0.088,0.085 c -0.257,-0.085 -0.43,-0.085 -0.603,0.088 l -2.859,2.683 c -0.173,0.172 -0.257,0.172 -0.257,-0.085 z m 1.474,1.558 -1.297,-0.606 -0.177,1.991 z m 0.952,3.032 c 0.606,0.257 0.606,0.518 1.297,-1.474 0.694,-1.988 0.606,-1.731 0,-1.988 v -0.176 l 1.819,0.606 -0.088,0.173 c -0.607,-0.085 -0.518,-0.519 -1.213,1.558 0.867,0.261 1.213,0.173 1.474,-0.691 0.257,-0.779 1.558,-1.297 1.385,0.434 0,0.084 -0.172,0.257 -0.172,0 0.172,-0.607 -0.177,-0.868 -0.695,-0.173 -0.346,0.779 -0.434,0.603 -1.213,0.779 0.867,0.43 1.128,0.863 0.952,1.297 -0.257,0.691 -0.864,0.864 -1.643,0.519 l -1.992,-0.691 z m 1.815,-1.128 c -0.779,1.819 -0.779,1.558 0.176,1.819 0.43,0.088 0.78,0 0.952,-0.346 0.346,-0.694 -0.088,-1.124 -0.779,-1.385 z m 2.859,1.128 0.173,0.084 c 0.173,1.386 0.779,1.731 1.036,1.474 0.088,0 0.177,-0.522 0.349,-1.647 0.258,-1.124 0.346,-1.73 0.258,-1.818 0,-0.085 -0.173,-0.085 -0.519,-0.173 v -0.173 l 1.819,0.261 v 0.173 c -0.694,-0.088 -0.606,-0.346 -1.039,1.819 -0.173,1.125 -0.261,1.643 -0.261,1.731 0.088,0.084 0.867,0.606 1.473,-1.128 h 0.258 l -0.346,1.558 -3.289,-0.603 z m 4.241,2.076 c 0.691,0.085 0.691,0.085 0.691,-0.261 0.173,-2.076 0.173,-3.2 0.088,-3.289 -0.088,-0.084 -0.261,-0.084 -0.606,-0.173 v -0.172 l 1.903,0.172 v 0.173 c -0.345,0 -0.606,0 -0.691,0.089 -0.088,0.084 -0.088,1.124 -0.176,3.2 0,0.346 0,0.346 0.695,0.434 v 0.173 l -1.904,-0.173 z m 4.675,0 c -0.434,0.261 -0.695,0.434 -1.04,0.434 -0.695,0 -1.213,-0.522 -1.213,-1.301 0,-0.258 0.088,-0.518 0.345,-0.779 0.173,-0.085 0.434,-0.257 0.868,-0.346 1.124,-0.257 1.297,-0.345 1.297,-0.863 0,-0.434 -0.345,-0.779 -0.952,-0.779 -0.691,0 -1.297,0.43 -1.385,1.385 h -0.258 v -1.558 h 0.258 l 0.345,0.346 c 0.261,-0.262 0.606,-0.434 1.04,-0.434 0.779,0 1.386,0.606 1.386,1.297 0,0.695 -0.346,0.952 -1.559,1.213 -0.951,0.345 -1.04,0.345 -1.04,0.867 0,0.346 0.434,0.691 0.868,0.691 0.606,0 0.952,-0.345 1.297,-1.298 h 0.173 l -0.085,1.471 H -1.125 Z M 2.249,58.08 C 3.028,57.819 2.944,58.164 2.594,56.003 2.337,53.923 2.249,54.269 1.558,54.357 v -0.173 l 1.904,-0.346 v 0.173 c -0.695,0.085 -0.779,-0.173 -0.434,1.904 0.346,2.165 0.173,2.076 1.125,1.819 v 0.173 L 2.249,58.252 Z M 4.675,57.558 C 4.932,57.473 5.104,57.473 5.193,57.385 5.277,57.301 5.02,56.349 4.414,54.445 4.325,54.096 3.98,53.923 3.635,54.011 L 3.546,53.838 5.193,53.405 v 0.088 C 4.759,53.75 4.675,54.011 4.759,54.357 l 0.695,2.337 1.47,-3.807 0.261,-0.089 c 0.602,2.338 0.951,3.462 1.124,3.551 0.173,0.084 0.346,0.084 0.518,0 l 0.089,0.172 -1.474,0.434 V 56.779 C 7.615,56.694 7.703,56.606 7.787,56.433 7.875,56.349 7.703,55.397 7.185,53.666 l -1.559,3.807 -0.951,0.261 z m 4.413,-1.382 c 0.691,-0.261 0.952,0 0,-2.08 C 8.309,52.108 8.394,52.453 7.787,52.714 L 7.703,52.538 9.434,51.847 9.522,52.02 c -0.695,0.26 -0.956,-0.085 0,1.903 0.775,-0.345 0.775,-0.606 0.691,-1.209 h 0.084 l 0.695,1.643 -0.173,0.088 C 10.558,54.011 10.297,53.75 9.606,54.096 l 0.519,1.385 c 0.521,0.261 1.991,-0.345 1.558,-1.643 l 0.088,-0.088 0.434,1.298 -3.032,1.301 z m 5.799,-2.51 c -0.694,0.518 -2.076,0 -2.598,-0.868 -0.606,-1.212 -0.257,-2.337 0.607,-2.855 0.867,-0.518 2.076,-0.172 2.682,0.952 0.607,1.04 0.346,2.249 -0.691,2.771 m 0,-0.261 c 0.519,-0.345 0.78,-0.867 0.085,-2.249 -0.779,-1.301 -1.47,-1.385 -1.988,-1.04 -0.607,0.345 -0.779,1.04 -0.088,2.337 0.69,1.04 1.385,1.297 1.991,0.952 m 2.338,-1.558 c 0.345,-0.261 0.43,-0.518 0.257,-0.779 -1.209,-1.643 -1.904,-2.422 -1.988,-2.51 -0.088,0 -0.261,0.088 -0.522,0.345 l -0.085,-0.173 1.47,-1.124 0.089,0.088 c -0.434,0.43 -0.779,0.173 0.606,1.816 0.864,-0.519 0.779,-0.78 0.345,-1.386 -0.433,-0.691 -0.433,-1.124 -0.172,-1.386 0.43,-0.257 0.779,-0.084 1.209,0.349 0.088,0.085 0.172,0.346 -0.085,0.085 -0.694,-0.518 -0.867,-0.172 -0.518,0.346 0.43,0.778 0.346,0.951 -0.088,1.646 0.952,-1.04 2.944,-0.088 1.213,1.558 l -1.647,1.213 z m 0,-2.165 c 1.036,1.474 0.863,1.474 1.558,0.868 0.43,-0.261 0.518,-0.522 0.43,-0.779 -0.173,-0.607 -0.779,-1.125 -1.988,-0.089 m 3.98,-1.213 c 0.261,-0.257 0.345,-0.429 0.261,-0.518 0,-0.084 -0.779,-0.691 -2.253,-1.992 -0.346,-0.257 -0.518,-0.257 -0.864,0 l -0.172,-0.084 1.036,-1.125 0.172,0.085 c -0.257,0.349 -0.345,0.606 -0.257,0.694 0.085,0.085 0.952,0.864 2.595,2.249 l -1.988,-3.634 0.084,-0.088 3.896,1.385 c -1.731,-1.47 -2.683,-2.249 -2.856,-2.249 -0.088,0 -0.261,0.173 -0.433,0.434 l -0.173,-0.088 1.213,-1.471 0.172,0.085 c -0.433,0.607 -0.779,0.346 0.952,1.731 1.816,1.473 1.47,1.125 1.731,0.779 l 0.173,0.088 -0.779,0.952 -3.201,-1.213 1.642,3.117 -0.779,0.952 z m 5.108,-6.317 c -2.598,-0.433 -3.984,-0.607 -4.157,-0.607 -0.084,0.089 -0.26,0.174 -0.345,0.35 l -0.173,-0.088 0.779,-1.298 0.173,0.085 c -0.261,0.606 -0.606,0.695 0.779,0.867 l 0.864,-1.385 c -0.691,-1.04 -0.691,-1.04 -1.036,-0.434 l -0.173,-0.084 0.863,-1.386 0.089,0.085 c -0.089,0.261 -0.089,0.433 0,0.522 l 2.421,3.2 c 0.089,0.173 0.089,0.173 -0.084,0.173 m -1.907,-1.903 -0.776,1.296 1.904,0.35 z m 1.646,-0.78 0.088,-0.172 c 0.43,0.088 0.776,0.088 1.037,0 0.694,-0.261 0.694,-0.607 0.606,-0.692 0,-0.087 -1.04,-0.521 -3.201,-1.385 -0.088,0 -0.088,-0.088 -0.349,0.518 l -0.173,-0.088 0.695,-1.643 0.172,0.089 c -0.088,0.43 -0.606,0.518 1.47,1.297 1.04,0.434 1.559,0.607 1.647,0.518 0.084,0 0.863,-0.606 -0.779,-1.558 l 0.084,-0.173 1.474,0.607 -1.301,3.028 z m 4.329,-9.173 c 0.257,0.431 0.257,0.78 0.257,1.125 -0.172,0.952 -1.124,1.731 -2.51,1.558 -1.036,-0.172 -1.903,-1.124 -1.731,-2.08 0.089,-0.952 0.695,-1.381 1.647,-1.381 0.173,0 0.173,0.172 0,0.172 -0.779,0.084 -1.386,0.43 -1.474,1.209 -0.084,0.695 0.522,1.301 1.647,1.386 1.47,0.261 2.076,-0.257 2.164,-0.952 0,-0.257 -0.088,-0.519 -0.261,-0.779 -0.261,-0.258 -0.518,-0.434 -0.952,-0.691 v -0.089 l 1.643,0.262 -0.084,0.172 z m -1.301,5.451 c 0.088,-0.691 0.173,-0.691 -0.173,-0.779 l -3.028,-0.864 c -0.088,0 -0.172,-0.088 -0.433,0.606 h -0.173 l 0.518,-1.903 0.173,0.084 c -0.085,0.695 -0.43,0.695 1.646,1.297 2.165,0.607 1.731,0.35 1.992,-0.257 h 0.173 l -0.522,1.904 z m 1.819,-7.703 c 0,-0.779 -0.088,-0.691 -0.172,-0.691 -0.089,0 -0.607,0.257 -1.731,0.691 -2.165,0.952 -1.992,0.867 -1.992,1.212 h -0.173 l 0.085,-1.124 h 0.176 c 0,0.691 0,0.518 1.643,-0.173 v -1.128 c -1.731,-0.084 -1.558,-0.173 -1.558,0.522 h -0.173 l 0.261,-3.289 1.558,0.084 -0.088,0.173 c -1.125,0.177 -1.298,0.261 -1.47,1.213 0,0.694 -0.261,0.779 1.815,0.779 0,-0.952 -0.173,-1.037 -0.779,-1.037 v -0.088 l 1.904,0.088 v 0.085 c -0.603,0.088 -0.864,0.346 -0.952,0.952 l 1.474,0.088 c 0.084,0 0.257,0.173 0.257,-0.952 0.088,-0.522 -0.346,-0.867 -1.125,-0.951 l 0.089,-0.177 1.297,0.177 -0.173,3.546 z m -1.903,-1.213 v 1.04 l 1.815,-0.779 c 0,-0.173 -0.173,-0.173 -0.345,-0.173 z M -32.803,20.08 c 0.084,-0.779 0.345,-0.691 -1.474,-1.124 -0.863,-0.173 -1.385,-0.346 -1.558,-0.519 -0.345,-0.345 -0.43,-0.867 -0.345,-1.558 0.088,-0.434 0.345,-0.779 0.691,-1.04 0.26,-0.172 0.867,-0.085 1.819,0.173 0.951,0.261 1.558,0.349 1.646,0.261 0.085,-0.085 0.173,-0.346 0.257,-0.606 l 0.261,0.087 -0.433,1.643 -0.173,-0.084 c 0,-0.346 0,-0.522 -0.261,-0.606 -0.085,-0.089 -2.595,-0.868 -3.028,-0.607 -0.607,0.607 -0.607,1.558 -0.088,1.904 0.088,0.088 0.606,0.172 1.473,0.433 0.864,0.261 1.297,0.434 1.386,0.346 0.084,-0.085 0.172,-0.258 0.257,-0.607 h 0.261 l -0.518,1.992 z m 1.209,-4.498 c 0.088,-0.173 0.088,-0.346 0,-0.522 0,-0.084 -0.952,-0.518 -2.767,-1.124 -0.349,-0.085 -0.695,0.088 -0.779,0.433 l -0.173,-0.088 0.603,-1.554 0.176,0.084 c -0.088,0.261 -0.176,0.434 -0.088,0.518 0.088,0.173 1.04,0.607 2.771,1.213 l -2.253,-3.55 c -0.084,-0.173 0,-0.173 0.088,-0.173 2.165,0.779 3.374,1.128 3.55,1.04 0.173,-0.088 0.258,-0.172 0.346,-0.261 h 0.172 l -0.518,1.386 -0.176,-0.085 c 0.088,-0.088 0.088,-0.261 0,-0.434 -0.085,-0.172 -0.952,-0.518 -2.683,-1.124 l 2.165,3.462 -0.261,0.864 z m 1.474,-3.984 c 0.345,-0.606 0.518,-0.691 -1.213,-1.47 -1.646,-0.779 -1.731,-0.867 -2.076,-0.261 l -0.173,-0.084 0.863,-1.647 0.173,0.089 c -0.345,0.606 -0.257,0.691 1.213,1.469 1.643,0.78 1.731,0.868 2.076,0.262 l 0.173,0.084 -0.952,1.731 z m 0.952,-1.815 c 0.084,-0.173 0.172,-0.345 0.084,-0.434 0,-0.088 -0.779,-1.297 -2.337,-3.462 0,0 -0.085,-0.173 0.088,-0.088 2.598,0.606 3.98,0.868 4.068,0.779 0.173,-0.084 0.261,-0.173 0.346,-0.257 l 0.088,0.084 -0.779,1.302 -0.173,-0.089 c 0.346,-0.606 0.43,-0.691 0.173,-0.779 -0.088,-0.088 -1.125,-0.261 -2.944,-0.606 1.125,1.646 1.731,2.425 1.819,2.425 0.085,0.085 0.085,0.085 0.173,0.085 0.084,0 0.173,-0.173 0.345,-0.434 l 0.173,0.088 -0.952,1.47 z m 2.421,-3.635 c 0.346,-0.349 0.261,-0.606 -1.124,-1.731 -1.297,-1.04 -1.386,-1.128 -1.731,-0.694 l -0.173,-0.085 2.165,-2.598 1.209,0.867 -0.085,0.173 c -1.47,-1.04 -2.337,0.691 -2.337,0.691 0,0.088 0.434,0.434 1.386,1.212 0.433,-0.694 0.345,-0.951 -0.089,-1.3 l 0.089,-0.173 1.469,1.301 -0.084,0.085 c -0.434,-0.346 -0.695,-0.434 -1.301,0.172 l 1.128,0.952 c 0.603,0.088 1.816,-1.382 0.518,-2.077 l 0.085,-0.084 1.128,0.864 -2.164,2.51 z m 2.51,-2.943 C -23.542,2.51 -23.891,2.51 -25.016,1.128 -26.14,-0.173 -26.225,0 -26.658,0.434 l -0.173,-0.085 1.47,-1.301 0.088,0.088 c -0.606,0.607 -0.522,0.518 0.779,1.816 l 0.257,-0.258 c 0.346,-0.345 0.346,-0.606 0,-1.124 -0.69,-1.04 -0.518,-1.213 -0.345,-1.385 0.345,-0.346 0.779,-0.262 1.213,0.257 0.084,0.088 0.084,0.176 -0.089,0.088 -1.815,-0.952 0.78,1.297 -0.433,1.904 0.867,-0.607 1.301,-0.518 1.646,-0.173 0.434,0.433 0.346,1.04 -0.261,1.646 l -1.558,1.47 z M -24.409,1.04 c 1.297,1.47 1.04,1.47 1.646,0.867 0.779,-0.779 0.346,-1.213 -0.088,-1.473 -0.346,-0.085 -0.607,-0.173 -1.558,0.606 m 5.365,-2.077 c -0.345,0.434 -0.345,0.691 -0.691,0.953 -0.606,0.345 -1.297,0.257 -1.731,-0.346 -0.172,-0.261 -0.172,-0.607 -0.088,-0.867 0.088,-0.261 0.261,-0.518 0.522,-0.78 0.691,-0.863 0.864,-1.036 0.518,-1.469 -0.261,-0.346 -0.606,-0.434 -1.213,-0.089 -0.606,0.346 -0.779,1.125 -0.345,1.904 l -0.173,0.173 -0.867,-1.297 0.176,-0.173 0.519,0.088 c 0,-0.349 0.172,-0.695 0.606,-0.952 1.988,-0.694 2.855,1.037 1.209,2.249 -0.603,0.779 -0.691,0.864 -0.346,1.297 0.261,0.262 0.695,0.346 1.125,0.089 0.434,-0.346 0.606,-0.868 0.349,-1.82 l 0.085,-0.084 0.779,1.209 -0.173,0.088 z m 0.867,-0.433 c 0.261,-0.088 0.434,-0.261 0.434,-0.518 0,-0.173 -0.522,-1.125 -1.474,-2.771 -0.084,-0.173 -0.345,-0.173 -0.779,0.088 l -0.084,-0.176 1.731,-0.864 0.084,0.173 c -0.43,0.088 -0.606,0.261 -0.518,0.518 l 1.47,2.771 c 0.088,0.261 0.177,0.261 0.779,-0.088 l 0.088,0.176 -1.646,0.864 z m 1.47,-2.422 0.173,-0.088 c 0.779,1.297 1.558,1.04 1.558,0.691 0.089,-0.085 -0.084,-0.603 -0.518,-1.558 -0.345,-0.952 -0.606,-1.555 -0.691,-1.643 -0.088,-0.088 -0.349,0 -0.606,0.173 l -0.088,-0.173 1.646,-0.691 0.085,0.173 c -0.691,0.257 -0.607,0.257 0.088,2.076 0.434,0.952 0.606,1.386 0.691,1.47 0.261,0.088 1.124,0.173 0.694,-1.642 l 0.258,-0.089 0.433,1.474 -3.028,1.209 z m 5.627,-0.349 c -1.643,-2.076 -2.51,-3.116 -2.595,-3.201 -0.088,-0.088 -0.261,-0.088 -0.433,0 l -0.089,-0.173 1.559,-0.433 v 0.173 c -0.864,0.172 -0.691,0.345 -0.085,1.212 l 1.558,-0.518 c 0.258,-1.128 0,-1.128 -0.433,-1.04 l -0.089,-0.173 1.559,-0.434 0.088,0.173 c -0.261,0.089 -0.434,0.173 -0.434,0.434 l -0.345,3.98 c -0.088,0.173 -0.173,0.088 -0.261,0 m -0.085,-2.683 -1.385,0.434 1.124,1.558 z m 4.759,1.298 c -0.433,0.522 -1.819,1.3 -2.337,-0.519 -0.084,-0.257 0,-0.518 0.173,-0.779 0.173,-0.173 0.434,-0.345 0.867,-0.518 1.037,-0.433 1.125,-0.433 1.125,-1.04 0,-0.43 -0.434,-0.691 -1.04,-0.606 C -8.309,-9 -8.827,-8.482 -8.827,-7.53 H -9.088 L -9.261,-9 l 0.257,-0.088 0.349,0.349 c 0.258,-0.349 0.603,-0.522 1.037,-0.607 1.385,-0.26 1.646,1.209 1.385,1.643 -0.084,0.346 -0.433,0.522 -1.213,0.868 -0.951,0.518 -0.951,0.433 -0.951,1.036 0.088,0.349 0.522,0.606 0.951,0.522 0.607,-0.089 0.868,-0.434 1.129,-1.474 h 0.172 l 0.085,1.474 h -0.173 z m 3.029,0 c 0.694,0 0.606,0 0.606,-0.258 l 0.173,-2.855 c 0,-0.434 -0.085,-0.607 -0.518,-0.607 v -0.172 l 1.558,0.084 v 0.173 c -0.607,0 -0.779,0.261 -0.779,0.695 l -0.173,3.028 1.731,-3.808 h 0.173 l 1.04,3.98 0.257,-3.462 c 0,-0.084 -0.085,-0.26 -0.346,-0.26 L 0,-9.088 0.084,-9.261 1.992,-9.173 1.904,-9 H 1.558 c -0.261,0 -0.345,0 -0.345,0.261 l -0.177,3.113 c 0,0.26 -0.084,0.349 0.607,0.349 v 0.173 l -1.386,-0.089 -0.863,-3.373 -1.559,3.2 -1.297,-0.084 z m 6.923,1.04 C 3.028,-7.269 2.767,-8.655 2.683,-8.739 c 0,-0.089 -0.089,-0.089 -0.346,-0.173 v -0.176 l 1.47,0.26 v 0.173 C 3.201,-8.739 2.855,-8.828 3.201,-7.615 l 1.558,0.258 c 0.867,-1.209 0.606,-1.037 0.088,-1.125 v -0.173 l 1.643,0.346 -0.084,0.172 c -0.261,-0.084 -0.434,0 -0.522,0.177 l -2.077,3.374 c -0.172,0.172 -0.172,0.088 -0.261,0 m 1.129,-2.511 -1.474,-0.26 0.345,1.907 z m 3.546,3.462 c -0.346,0.089 -2.51,0.173 -1.731,-1.642 0.261,-0.607 0.695,-0.695 1.474,-0.607 1.209,0.258 1.297,0.173 1.47,-0.433 0.261,-0.346 0.088,-0.691 -0.518,-0.952 -0.695,-0.261 -1.474,0 -1.82,0.779 L 6.835,-6.578 7.357,-8.048 7.53,-7.96 7.875,-7.442 C 8.136,-7.703 8.566,-7.703 9,-7.53 c 1.385,0.433 0.952,1.992 0.434,2.164 -0.261,0.262 -0.518,0.262 -1.47,0.173 -1.129,-0.173 -1.558,0.173 -1.301,0.867 0.433,0.952 1.124,0.691 2.253,-0.26 l 0.172,0.088 -0.606,1.297 -0.173,-0.088 z m 2.076,1.298 c 0.261,-2.595 0.349,-3.98 0.261,-4.065 -0.084,-0.088 -0.173,-0.261 -0.345,-0.349 l 0.084,-0.084 1.386,0.69 -0.085,0.173 c -0.433,-0.345 -0.779,-0.257 -0.779,0.779 l 1.386,0.695 c 1.297,-0.868 0.951,-0.779 0.345,-1.04 l 0.085,-0.173 1.473,0.691 -0.088,0.173 -0.173,-0.085 c -0.084,-0.088 -0.261,0 -0.433,0.085 l -2.94,2.686 c -0.089,0.084 -0.177,0.084 -0.177,-0.176 m 1.735,-1.989 -1.301,-0.606 -0.173,1.904 z m 0.257,2.768 c 0.607,0.349 0.695,0.261 0.779,0.176 1.125,-1.646 1.731,-2.598 1.731,-2.771 0.088,-0.088 -0.084,-0.261 -0.345,-0.433 l 0.088,-0.173 1.554,1.04 -0.084,0.173 C 15.406,-3.98 15.406,-3.807 15.321,-3.719 l -0.867,1.297 c 0.867,0.518 0.867,0.518 1.47,-0.088 0.779,-0.952 0.867,-0.779 1.212,-0.603 0.434,0.258 0.434,0.603 0.089,1.209 -0.089,0.089 -0.089,0 -0.089,-0.084 0.261,-1.731 -1.04,0.863 -2.076,0.084 0.607,0.607 1.036,1.125 0.518,1.647 -0.257,0.43 -0.863,0.43 -1.642,0 l -1.731,-1.125 z m 2.076,-0.691 c -1.036,1.47 -1.036,1.297 -0.429,1.646 1.47,0.864 2.16,-0.522 0.429,-1.646 m 1.647,3.116 c 0.261,0.173 0.345,0.261 0.434,0.261 0.084,0.085 0.951,-0.176 2.421,-0.694 l 0.779,-0.952 c 0.089,-0.085 0.089,-0.173 -0.345,-0.607 L 19.385,-1.297 20.859,0 20.687,0.173 C 20.253,-0.257 20.165,-0.779 19.128,0.867 18.434,3.55 18.606,3.205 18.956,3.55 l -0.173,0.088 -1.04,-0.955 0.088,-0.173 0.173,0.173 c 0.084,0.088 0.345,0.088 0.43,0 0.088,-0.085 0.172,-0.691 0.433,-1.816 -2.51,0.607 -1.992,0.779 -1.642,1.125 L 17.136,2.165 15.839,1.04 Z m 3.289,3.029 c 0.345,0.433 0.434,0.345 0.518,0.26 1.558,-1.297 2.337,-2.076 2.426,-2.164 0.084,-0.085 0.084,-0.261 -0.173,-0.518 l 0.173,-0.089 1.209,1.386 -0.173,0.172 c -0.43,-0.69 -0.43,-0.518 -1.385,0.262 l -0.085,0.863 c 2.51,0 2.249,-0.345 1.819,-0.779 L 23.803,3.205 24.927,4.59 24.755,4.674 C 24.667,4.59 24.582,4.502 24.406,4.417 c -0.085,0 -1.037,0.085 -2.683,0.257 -0.257,1.731 -0.173,1.904 0.088,2.253 l -0.173,0.085 -1.04,-1.213 0.173,-0.173 c 0.261,0.346 0.434,0.434 0.522,0.088 0.084,-0.088 0.257,-0.867 0.345,-2.337 -1.992,1.643 -1.646,1.47 -1.212,1.904 L 20.341,5.454 19.128,3.983 Z m 2.683,3.377 c 0.345,0.606 0.345,0.606 0.691,0.345 1.731,-1.04 2.598,-1.646 2.686,-1.731 0.085,-0.088 0,-0.345 -0.261,-0.606 l 0.173,-0.088 1.04,1.558 -0.173,0.088 C 25.791,6.233 26.052,5.972 22.936,8.052 22.59,8.309 22.59,8.225 23.024,8.831 l -0.173,0.085 -1.04,-1.559 z m 1.646,3.461 c 1.816,-1.818 2.683,-2.77 2.767,-3.027 0.089,-0.177 0.089,-0.35 0,-0.522 H 26.57 L 27.265,8.57 27.092,8.658 C 26.743,7.879 26.658,7.964 25.879,8.831 l 0.691,1.385 c 1.125,0 1.213,-0.176 0.952,-0.606 l 0.173,-0.088 0.694,1.47 -0.172,0.088 c -0.089,-0.173 -0.173,-0.261 -0.434,-0.346 l -4.068,0.258 c -0.085,0 -0.261,0 -0.085,-0.258 m 2.683,-0.518 -0.606,-1.3 -1.386,1.385 z m -1.558,2.161 c 0.257,0.607 0,0.868 3.116,-0.43 0.346,-0.088 0.518,-0.522 0.43,-0.779 l 0.173,-0.088 0.522,1.558 -0.173,0.089 c -0.088,-0.434 0.084,-0.78 -3.116,0.345 l 3.895,1.297 0.085,0.173 c -2.165,0.779 -3.29,1.212 -3.374,1.297 -0.088,0.088 -0.173,0.261 -0.088,0.606 l -0.173,0.089 -0.434,-1.386 0.173,-0.088 c 0.088,0.434 0,0.867 3.032,-0.43 l -3.896,-1.301 -0.345,-0.864 z m 4.586,3.377 c 0.346,-0.26 0.434,-0.433 0.346,-0.778 h 0.172 l 0.346,1.469 -0.173,0.089 c -0.173,-0.78 -0.173,-0.867 -1.125,-0.173 l 0.346,1.558 c 1.558,0.43 1.128,0 1.04,-0.434 h 0.173 l 0.345,1.559 -0.173,0.084 c -0.084,-0.257 -0.172,-0.345 -0.345,-0.43 l -3.98,-0.606 c -0.088,0 -0.261,0 -0.088,-0.173 z m -0.345,2.165 -0.346,-1.474 -1.646,1.125 z" />
          </g>
        </g>
      </g>
    </g>
  </g>
  <path
     id="path2857-9"
     style="fill:#939597;fill-opacity:1;fill-rule:nonzero;stroke:none;stroke-width:0.19420971"
     d="m 20.382584,11.38302 -0.03364,0.01629 h -0.92619 l -0.319295,-0.570835 h 0.891771 l 0.03364,-0.01629 3.971744,-6.9002925 0.303156,0.621075 z m 0.420995,-5.0196115 0.03345,0.01629 0.118034,0.571032 -0.353714,0.688575 -0.118034,-0.63795 -0.03364,-0.01707 h -2.204537 l 0.370243,-0.620881 z M 19.87739,10.643821 16.814528,5.3218185 h 0.740291 l 0.791043,1.393636 -0.168593,0.285904 0.370826,0.687799 0.454442,0.01707 1.228567,2.283158 z m 1.70012,-5.3220025 0.269321,-0.486658 0.06709,0.486658 h 0.320267 l -2.323349,3.979185 -0.85813,-1.594777 h 1.54864 l 0.38716,-0.755493 -0.134952,-0.621657 h -2.271818 l -0.202233,0.336529 -0.773931,-1.343787 z m 1.060364,-0.721355 -0.370048,0.671506 H 21.96467 l -0.101311,-0.671506 z m -0.741068,-0.201529 -0.100728,0.168167 0.03364,0.200948 -0.252209,0.470558 -0.100922,-0.72213 0.31949,-0.571032 z m -6.075749,-0.50392 h 5.94138 l -0.319295,0.587907 h -5.992133 z m 3.113615,6.7488065 h 0.21954 l -0.101506,0.151098 0.353714,0.63795 h 0.976164 l 3.971939,-6.8999045 c -0.05075,-0.116961 -0.336601,-0.687993 -0.336601,-0.687993 h -1.800849 l -0.285849,0.503144 -0.118034,-0.503144 h -6.025579 l -0.403883,0.63795 z m 1.514999,-3.6595315 0.03364,0.01707 0.353714,-0.621657 -0.03345,-0.01629 z m -0.06709,4.3987305 -0.03364,0.01629 -0.353713,-0.570838 0.03364,-0.01629 z M 13.431399,7.1687495 c 0,0.100668 0.08439,0.184655 0.185121,0.184655 0.08439,0 0.16801,-0.08399 0.16801,-0.184655 0,-0.08399 -0.08362,-0.167391 -0.16801,-0.167391 -0.100727,0 -0.185121,0.08341 -0.185121,0.167391 m 12.370842,0 c 0,0.100668 0.08362,0.184655 0.185121,0.184655 0.08362,0 0.16801,-0.08399 0.16801,-0.184655 0,-0.08399 -0.08439,-0.167391 -0.16801,-0.167391 -0.101505,0 -0.185121,0.08341 -0.185121,0.167391 M 13.262807,6.7154545 v -0.08418 c 0,-0.01629 0,-0.04985 0.05075,-0.04985 h 0.622451 c 0.05075,0 0.05075,0.03356 0.05075,0.04985 v 0.08418 h 0.03345 v -0.369115 h -0.03345 v 0.08399 c 0,0.01649 -0.01711,0.05004 -0.06728,0.05004 h -0.286429 v -0.06711 c 0,-0.06692 0.06787,-0.117543 0.151481,-0.13403 v -0.03356 h -0.336602 v 0.03356 c 0.0842,0.01649 0.134952,0.06711 0.134952,0.134029 v 0.06711 h -0.269321 c -0.05075,0 -0.05075,0 -0.05075,-0.05004 v -0.117543 c 0,-0.05063 0.01711,-0.100473 0.05075,-0.151098 0.03364,-0.01707 0.100728,-0.05063 0.185122,-0.06711 v -0.03336 l -0.269515,0.01629 v 0.63795 z m 0.03364,-1.107538 c 0.438108,0.284934 0.656675,0.419739 0.673204,0.436226 0.01711,0.01707 0.03422,0.03336 0.01711,0.08399 h 0.03345 l 0.05075,-0.28571 -0.03345,-0.01649 c -0.03364,0.151098 -0.01731,0.184654 -0.218762,0.03336 l 0.04997,-0.302197 0.15148,-0.03336 c 0.01731,0 0.06728,0.01707 0.05075,0.100473 l 0.03364,0.01707 0.05075,-0.319459 h -0.03422 c 0,0.05063 -0.01653,0.06789 -0.06728,0.08437 l -0.757403,0.150904 c -0.03364,0.01726 -0.03364,0.03356 0,0.05082 m 0.522307,-0.03356 -0.05075,0.268059 -0.336594,-0.184841 z m -0.219346,-1.024522 c -0.06728,0.08418 -0.100727,0.117737 -0.117839,0.184849 -0.06728,0.201529 0.06786,0.40267 0.320073,0.469588 0.218567,0.06769 0.403688,-0.06692 0.47097,-0.251572 0.05075,-0.151098 -0.03364,-0.285128 -0.185121,-0.369309 -0.01653,0 -0.03364,0.01707 -0.01653,0.03356 0.134368,0.08418 0.218762,0.184655 0.168009,0.335753 -0.01633,0.134612 -0.185121,0.184654 -0.403689,0.117543 -0.269514,-0.06692 -0.353713,-0.201724 -0.303155,-0.31849 0.01731,-0.05063 0.05075,-0.10125 0.100922,-0.134806 0.05075,-0.01649 0.134952,-0.03356 0.219345,-0.03356 l 0.01634,-0.01629 -0.319295,-0.101249 v 0.03356 z m 0.06787,-0.251572 c 0.06728,-0.134611 0,-0.168167 0.336602,0.01649 0.168009,0.08418 0.268737,0.117543 0.31949,0.117543 0.0842,0 0.353713,-0.151099 0.26932,-0.436227 -0.01711,-0.05062 -0.06709,-0.101054 -0.151481,-0.134804 l -0.353713,-0.167392 c -0.06728,-0.05062 -0.08362,-0.08418 -0.03364,-0.168167 l -0.04997,-0.03356 -0.135146,0.285904 0.05075,0.03336 c 0.05017,-0.117543 0.05017,-0.117543 0.16801,-0.05063 0.538835,0.21821 0.488082,0.302391 0.420995,0.436421 -0.05017,0.117542 -0.08439,0.134611 -0.168009,0.134611 -0.03364,0 -0.135147,-0.03356 -0.302961,-0.117542 -0.151481,-0.08418 -0.235874,-0.117543 -0.252986,-0.13403 0,-0.01707 0.01711,-0.05063 0.05075,-0.117737 l -0.03364,-0.03336 -0.168593,0.352045 z m 0.420224,-0.873028 c 0.06786,-0.117736 0.01711,-0.134223 0.370825,0.08399 0.386577,0.21821 0.31949,0.184655 0.252403,0.302197 l 0.01633,0.01649 0.353714,-0.553963 -0.252208,-0.184654 -0.01711,0.03355 c 0.15148,0.13403 0.185121,0.218211 0.11784,0.335753 -0.11784,0.184656 -0.03364,0.184656 -0.420801,-0.03336 -0.353131,-0.21821 -0.303156,-0.184654 -0.218762,-0.31946 l -0.03364,-0.01649 -0.202233,0.318684 z m 0.605922,-0.4697821 0.01731,-0.034332 c -0.185121,-0.3355589 -0.03364,-0.3691148 0,-0.3355589 0.319295,0.268641 0.488082,0.4197396 0.488082,0.4368084 0.01633,0.016293 0,0.033556 -0.05075,0.083405 l 0.03345,0.03414 0.218762,-0.2686406 -0.03364,-0.033556 c -0.03364,0.050043 -0.06709,0.083405 -0.08362,0.083405 -0.01711,-0.016293 -0.168592,-0.1510985 -0.488082,-0.4191577 -0.06786,-0.067694 0,-0.2352791 0.31949,-0.033362 l 0.01711,-0.050625 -0.235874,-0.1846544 -0.403689,0.5031445 z M 15.198801,1.897566 c 0.218568,0.4697825 0.319295,0.7213546 0.302961,0.7554925 0,0.016486 -0.01711,0.050043 -0.03364,0.067112 l 0.03364,0.016293 L 15.703218,2.535516 15.686888,2.50196 C 15.568849,2.6530585 15.535403,2.535516 15.518096,2.484891 L 15.484646,2.40071 15.703214,2.1826937 c 0.269514,0.1348054 0.202233,0.1004737 0.117839,0.1846544 l 0.03364,0.017069 0.235874,-0.2182103 -0.03364,-0.017069 c -0.03345,0.033556 -0.06709,0.050625 -0.100727,0.033556 L 15.248776,1.8640101 c -0.03364,-0.017069 -0.06728,-0.017069 -0.04997,0.033556 m 0.454437,0.268641 -0.202234,0.2011414 -0.15148,-0.3520459 z m 0.403688,-0.8902979 c -0.0842,0 -0.471553,0.084181 -0.252208,0.4034466 0.06709,0.083405 0.168009,0.083405 0.31949,0.033556 0.23568,-0.084181 0.23568,-0.084181 0.302961,-0.017069 0.06709,0.066918 0.03364,0.1681674 -0.05075,0.2352792 C 16.259167,1.99804 16.124216,1.99804 15.989847,1.86401 l -0.03364,0.033556 0.168009,0.2515722 0.05075,-0.033362 0.01634,-0.1004737 c 0.252986,0.083211 0.37102,-0.268835 0.286627,-0.3865715 -0.101506,-0.1346115 -0.168787,-0.1175426 -0.387355,-0.033362 -0.11784,0.033362 -0.336602,0.066918 -0.285849,-0.1177365 0.03364,-0.1510985 0.218762,-0.2017233 0.420217,-0.050625 l 0.03422,-0.016293 -0.185704,-0.2182103 -0.01653,0.016487 z m 0.959053,0.1012496 c 0,0.083405 -0.01633,0.1340296 -0.06709,0.1510985 v 0.033556 l 0.252208,-0.1175427 -0.01653,-0.033556 c -0.06709,0.049849 -0.11784,0.1004737 -0.11784,-0.1681674 l 0.269321,-0.1340296 c 0.202428,0.1510985 0.202428,0.1510985 0.08439,0.2009474 v 0.034332 l 0.285856,-0.1348056 -0.01711,-0.016487 c -0.04997,0.016487 -0.08362,0.016487 -0.117256,-0.017069 L 17.015984,0.65502822 c -0.03364,-0.033362 -0.04997,-0.033362 -0.04997,0.016487 z m 0.286627,-0.302197 -0.252209,0.1175426 -0.03442,-0.38618378 z m 0.185121,-0.58810098 c 0.11784,-0.049849 0.11784,-0.1004737 0.252208,0.2859039 0.134952,0.38560188 0.11784,0.33575298 0,0.38560188 v 0.034138 l 0.353714,-0.1175428 -0.01711,-0.033556 c -0.118034,0.016487 -0.100727,0.1006677 -0.235873,-0.30219708 0.168592,-0.050625 0.235873,-0.033556 0.286626,0.1340296 0.04997,0.15109858 0.302961,0.25157228 0.269321,-0.084181 0,-0.016293 -0.03345,-0.049849 -0.03345,0 0.03345,0.1177366 -0.03442,0.1683614 -0.135147,0.033556 -0.06728,-0.1510982 -0.08439,-0.1169604 -0.235873,-0.1510982 0.168593,-0.0834047 0.219346,-0.1673915 0.185121,-0.2515721 -0.04997,-0.1340296 -0.168009,-0.1675855 -0.319489,-0.1006677 l -0.387355,0.1340296 z m 0.352936,0.2187921 c -0.151481,-0.3528217 -0.151481,-0.3021969 0.03422,-0.3528217 0.08362,-0.017069 0.151675,0 0.185121,0.067112 0.06728,0.1346115 -0.01711,0.2180163 -0.151481,0.2686411 z m 0.555947,-0.2187921 0.03364,-0.016293 c 0.03364,-0.268835 0.15148,-0.3357529 0.201455,-0.2859039 0.01711,0 0.03442,0.1012495 0.06787,0.3194598 0.05017,0.2180163 0.06728,0.3355589 0.05017,0.3526278 0,0.016487 -0.03364,0.016487 -0.100922,0.033556 v 0.033556 l 0.353714,-0.050625 v -0.033556 c -0.134952,0.017069 -0.11784,0.067112 -0.202039,-0.3528217 -0.03364,-0.2182103 -0.05075,-0.318684 -0.05075,-0.3357529 0.01711,-0.016293 0.168592,-0.1175426 0.286432,0.2187922 h 0.05017 l -0.06728,-0.302197 -0.639562,0.1169607 z m 0.824684,-0.4026707 c 0.134368,-0.016487 0.134368,-0.016487 0.134368,0.050625 0.03364,0.4026707 0.03364,0.620687 0.01711,0.6379498 -0.01711,0.016293 -0.05075,0.016293 -0.11784,0.033556 v 0.033362 l 0.370047,-0.033362 v -0.033556 c -0.06709,0 -0.11784,0 -0.134368,-0.017263 -0.01711,-0.016293 -0.01711,-0.2180163 -0.03422,-0.620687 0,-0.067112 0,-0.067112 0.135146,-0.084181 v -0.0335555 l -0.370243,0.033556 z m 0.909077,0 C 20.045986,0.03356512 19.99523,9.1273981e-6 19.928143,9.1273981e-6 c -0.135146,0 -0.235874,0.1012494926019 -0.235874,0.2523479926019 0,0.050043 0.01711,0.1004737 0.06709,0.1510985 0.03364,0.016487 0.08439,0.049849 0.168787,0.067112 0.218567,0.049849 0.252208,0.066918 0.252208,0.1673915 0,0.084181 -0.06709,0.1510985 -0.185121,0.1510985 -0.134369,0 -0.252208,-0.083405 -0.269321,-0.2686411 h -0.05017 v 0.302197 h 0.05017 l 0.06709,-0.067112 c 0.05075,0.050819 0.11784,0.084181 0.202234,0.084181 0.15148,0 0.269514,-0.1175426 0.269514,-0.2515722 0,-0.1348055 -0.06728,-0.1846544 -0.303155,-0.2352792 -0.184927,-0.066918 -0.202234,-0.066918 -0.202234,-0.1681673 0,-0.067112 0.08439,-0.1340296 0.168788,-0.1340296 0.117839,0 0.185121,0.066918 0.252208,0.2517661 h 0.03364 l -0.01653,-0.285322 h -0.03364 z m 0.689538,0.033362 c 0.15148,0.050625 0.135146,-0.016293 0.06709,0.4028647 -0.04998,0.4034465 -0.06709,0.3363347 -0.201456,0.3192658 v 0.033556 l 0.370242,0.067112 v -0.033556 c -0.135146,-0.016487 -0.15148,0.033556 -0.08439,-0.3693087 0.06728,-0.4199336 0.03364,-0.4026707 0.218762,-0.3528218 v -0.033556 l -0.370242,-0.066918 z m 0.471748,0.1012496 c 0.04998,0.016487 0.08342,0.016487 0.100727,0.033556 0.01633,0.016293 -0.03364,0.2009474 -0.15148,0.5702561 -0.01731,0.067694 -0.08439,0.1012496 -0.151481,0.084181 l -0.01731,0.033556 0.320268,0.083987 v -0.017069 c -0.08439,-0.049849 -0.100728,-0.10047376 -0.08439,-0.16758556 l 0.135146,-0.4532954 0.285849,0.73842356 0.05075,0.017263 c 0.117062,-0.45348956 0.184926,-0.67150586 0.218567,-0.68876866 0.03364,-0.016293 0.06728,-0.016293 0.100728,0 l 0.01731,-0.033362 -0.286627,-0.084181 v 0.034138 c 0.03364,0.016487 0.05075,0.033556 0.06709,0.067112 0.01711,0.016293 -0.01633,0.2009474 -0.117061,0.5367002 l -0.30316,-0.7384244 -0.184926,-0.050625 z m 0.85813,0.2680592 c 0.134368,0.050625 0.185121,0 0,0.4034465 C 21.998311,1.2759093 22.01484,1.2089915 21.896806,1.1583667 l -0.01633,0.034138 0.336601,0.1340296 0.01711,-0.033556 c -0.135146,-0.050431 -0.185899,0.016487 0,-0.36911488 0.150703,0.066918 0.150703,0.11754268 0.134369,0.23450338 h 0.01633 l 0.135145,-0.31868418 -0.03364,-0.017069 c -0.05075,0.084181 -0.101505,0.1348055 -0.235874,0.067694 l 0.100923,-0.2686411 c 0.101311,-0.050625 0.38716,0.066918 0.302961,0.318684 l 0.01711,0.017069 0.08439,-0.2517662 -0.589588,-0.252348 z m 1.127645,0.4868513 c -0.134952,-0.1004737 -0.403689,0 -0.505195,0.16836148 -0.117839,0.2350852 -0.04998,0.4532954 0.118035,0.5537691 0.168592,0.1004737 0.403688,0.033362 0.521528,-0.1846543 0.118034,-0.2017233 0.06728,-0.4362266 -0.134368,-0.53747628 m 0,0.050625 c 0.100922,0.066918 0.151674,0.1681674 0.01653,0.4362266 -0.151482,0.252348 -0.285851,0.2686411 -0.386578,0.2017232 -0.118035,-0.066918 -0.151481,-0.2017232 -0.01711,-0.4532954 0.134174,-0.2017233 0.26932,-0.25157226 0.38716,-0.1846544 m 0.454636,0.302197 c 0.06709,0.050625 0.08362,0.1004737 0.04997,0.1510985 -0.235096,0.3186839 -0.370242,0.4697824 -0.386576,0.4868513 -0.01711,0 -0.05075,-0.017069 -0.101506,-0.066918 l -0.01653,0.033556 0.285849,0.2180163 0.01731,-0.017069 c -0.08439,-0.083405 -0.151481,-0.033556 0.11784,-0.35224 0.168009,0.1006677 0.15148,0.1512925 0.06709,0.2688351 -0.0842,0.1340296 -0.0842,0.2180163 -0.03345,0.268835 0.08362,0.049849 0.15148,0.016293 0.235096,-0.067694 0.01711,-0.016487 0.03345,-0.067112 -0.01653,-0.016487 -0.134952,0.1004737 -0.168593,0.033362 -0.100728,-0.067112 0.08362,-0.1509045 0.06728,-0.1844604 -0.01711,-0.3192658 0.185121,0.2017232 0.572476,0.017069 0.235874,-0.302197 L 23.748405,1.3094651 Z m 0,0.4199335 c 0.201455,-0.2859039 0.167814,-0.2859039 0.302961,-0.1683613 0.08362,0.050625 0.100727,0.1012496 0.08362,0.1510985 -0.03364,0.1177365 -0.15148,0.2182102 -0.386576,0.017263 m 0.773931,0.2352791 c 0.05075,0.049849 0.06709,0.083211 0.05075,0.1004737 0,0.016293 -0.15148,0.1340296 -0.438107,0.3863776 -0.06728,0.049849 -0.100727,0.049849 -0.168009,0 l -0.03345,0.016293 0.201455,0.21821 0.03345,-0.016486 C 24.10213,2.6189214 24.08501,2.5690721 24.10213,2.5520032 24.11866,2.5355162 24.287252,2.3844177 24.606741,2.1157767 l -0.386576,0.7048677 0.01633,0.017068 0.757597,-0.268641 c -0.336602,0.285128 -0.521723,0.4362265 -0.555364,0.4362265 -0.01711,0 -0.05075,-0.033556 -0.0842,-0.084181 l -0.03364,0.017068 0.235873,0.2853216 0.03345,-0.01649 c -0.0842,-0.117737 -0.151481,-0.06711 0.185121,-0.3357526 0.35313,-0.2857099 0.285849,-0.2182101 0.336602,-0.1510983 l 0.03364,-0.017068 -0.15148,-0.1846543 -0.622451,0.2352792 0.319296,-0.6045879 -0.151481,-0.1846544 z m 0.993276,1.2252744 c -0.505194,0.08399 -0.774709,0.117737 -0.808349,0.117737 -0.01634,-0.01726 -0.05056,-0.03375 -0.06709,-0.06789 l -0.03364,0.01707 0.15148,0.251766 0.03364,-0.01649 c -0.05075,-0.117543 -0.11784,-0.134806 0.151481,-0.168168 l 0.168009,0.268641 c -0.134369,0.201723 -0.134369,0.201723 -0.201456,0.08418 l -0.03364,0.01629 0.167814,0.268835 0.01731,-0.01649 c -0.01731,-0.05063 -0.01731,-0.08399 0,-0.10125 l 0.470775,-0.620687 c 0.01731,-0.03356 0.01731,-0.03356 -0.01633,-0.03356 m -0.370836,0.369116 -0.150897,-0.251379 0.370243,-0.06789 z m 0.320073,0.151292 0.01711,0.03336 c 0.08362,-0.01707 0.150897,-0.01707 0.20165,0 0.134951,0.05063 0.134951,0.117737 0.117839,0.134224 0,0.01688 -0.202233,0.101055 -0.62245,0.268641 -0.01711,0 -0.01711,0.01707 -0.06786,-0.100474 l -0.03364,0.01707 0.135146,0.318684 0.03345,-0.01726 c -0.01711,-0.0834 -0.11784,-0.100474 0.285849,-0.251572 0.202233,-0.08418 0.303155,-0.117737 0.320267,-0.100474 0.01633,0 0.167815,0.117543 -0.15148,0.302197 l 0.01634,0.03356 0.286627,-0.117737 -0.252986,-0.587325 z m 0.841796,1.779238 c 0.04997,-0.0836 0.04997,-0.151292 0.04997,-0.21821 -0.03345,-0.184655 -0.218567,-0.335753 -0.488082,-0.302197 -0.201455,0.03336 -0.370048,0.218016 -0.336602,0.403446 0.01731,0.184655 0.135147,0.267865 0.320268,0.267865 0.03364,0 0.03364,-0.03336 0,-0.03336 -0.151481,-0.01629 -0.269515,-0.08341 -0.286627,-0.234503 -0.01633,-0.134805 0.101506,-0.252348 0.320268,-0.268835 0.285849,-0.05063 0.403688,0.04985 0.4208,0.184654 0,0.04985 -0.01711,0.100668 -0.05075,0.151099 -0.05075,0.05004 -0.100727,0.08418 -0.185121,0.13403 v 0.01726 l 0.31949,-0.05082 -0.01633,-0.03336 z m -0.252986,-1.057301 c 0.01711,0.134029 0.03364,0.134029 -0.03364,0.151098 l -0.58881,0.167586 c -0.01711,0 -0.03345,0.01707 -0.0842,-0.117543 h -0.03364 l 0.100727,0.369115 0.03364,-0.01629 c -0.01653,-0.134806 -0.08362,-0.134806 0.320073,-0.251572 0.420995,-0.117737 0.336602,-0.06789 0.387355,0.04985 h 0.03364 l -0.101503,-0.36931 z m 0.353714,1.494109 c 0,0.151099 -0.01711,0.13403 -0.03345,0.13403 -0.01731,0 -0.118035,-0.04985 -0.336602,-0.13403 -0.420991,-0.184654 -0.38735,-0.168167 -0.38735,-0.235085 h -0.03364 l 0.01653,0.218017 h 0.03422 c 0,-0.13403 0,-0.100474 0.31949,0.03356 v 0.218792 c -0.336602,0.01629 -0.302961,0.03356 -0.302961,-0.10125 h -0.03364 l 0.05075,0.63795 0.302961,-0.01629 -0.01711,-0.03356 c -0.218762,-0.03433 -0.252402,-0.05063 -0.285849,-0.235279 0,-0.134612 -0.05075,-0.151099 0.352936,-0.151099 0,0.184655 -0.03364,0.201142 -0.15148,0.201142 v 0.01707 l 0.370242,-0.01707 v -0.01649 c -0.117254,-0.01707 -0.168007,-0.06711 -0.185119,-0.184654 l 0.286627,-0.01707 c 0.01633,0 0.04997,-0.03356 0.04997,0.184654 0.01711,0.10125 -0.06728,0.168168 -0.218762,0.184461 l 0.01731,0.03433 0.252208,-0.03433 -0.03364,-0.687799 z m -0.370048,0.235279 v -0.201707 l 0.352936,0.151099 c 0,0.03356 -0.03364,0.03356 -0.06709,0.03356 z m -12.017127,1.309455 c 0.01633,0.151099 0.06709,0.13403 -0.286627,0.218017 -0.167815,0.03356 -0.26932,0.06711 -0.302961,0.100667 -0.06709,0.06692 -0.08362,0.168168 -0.06709,0.302197 0.01711,0.08418 0.06709,0.151099 0.134369,0.201723 0.05056,0.03336 0.168592,0.01649 0.353713,-0.03356 0.184927,-0.05063 0.302961,-0.06769 0.320073,-0.05063 0.01653,0.01649 0.03364,0.06711 0.04997,0.117543 l 0.05075,-0.01688 -0.0842,-0.318683 -0.03364,0.01629 c 0,0.06711 0,0.101249 -0.05075,0.117542 -0.01653,0.01726 -0.504611,0.168361 -0.58881,0.117737 -0.118035,-0.117737 -0.118035,-0.302197 -0.01711,-0.369309 0.01711,-0.01707 0.117839,-0.03336 0.286432,-0.08399 0.168009,-0.05063 0.252208,-0.08418 0.269515,-0.06711 0.01633,0.01649 0.03345,0.05004 0.04997,0.117737 h 0.05075 l -0.100727,-0.386378 z m 0.235096,0.872453 c 0.01711,0.03356 0.01711,0.06711 0,0.10125 0,0.01629 -0.185121,0.100474 -0.538057,0.218016 -0.06787,0.01649 -0.135146,-0.01707 -0.151481,-0.08399 l -0.03364,0.01707 0.117256,0.301421 0.03422,-0.01629 c -0.01711,-0.05062 -0.03422,-0.08418 -0.01711,-0.100473 0.01711,-0.03356 0.202234,-0.117736 0.538835,-0.235279 l -0.438107,0.688575 c -0.01633,0.03356 0,0.03356 0.01711,0.03356 0.420995,-0.151099 0.656091,-0.218793 0.690315,-0.201724 0.03364,0.01707 0.05017,0.03336 0.06728,0.05063 h 0.03345 l -0.100727,-0.268835 -0.03422,0.01649 c 0.01711,0.01707 0.01711,0.05063 0,0.08418 -0.01653,0.03336 -0.185121,0.100474 -0.521723,0.218017 l 0.420996,-0.671505 -0.05075,-0.167586 z m 0.286627,0.772755 c 0.06709,0.117543 0.100728,0.13403 -0.235874,0.285129 -0.320073,0.151098 -0.336602,0.168167 -0.403689,0.05063 l -0.03364,0.01629 0.167815,0.31946 0.03364,-0.01726 c -0.06709,-0.117542 -0.04997,-0.134029 0.235874,-0.284934 0.319489,-0.151292 0.336602,-0.168361 0.403689,-0.05082 l 0.03364,-0.01629 -0.185121,-0.335753 z m 0.185121,0.352046 c 0.01633,0.03356 0.03345,0.06692 0.01633,0.08418 0,0.01707 -0.15148,0.251573 -0.454441,0.6715056 0,0 -0.01653,0.03356 0.01711,0.01707 0.505194,-0.117542 0.773931,-0.168361 0.791043,-0.151098 0.03364,0.01629 0.05075,0.03356 0.06728,0.04985 l 0.01711,-0.01629 -0.151481,-0.2525416 -0.03364,0.01726 c 0.06728,0.1175416 0.08362,0.1340286 0.03364,0.1510976 -0.01711,0.01707 -0.218762,0.05063 -0.572476,0.117543 0.218762,-0.3192656 0.336602,-0.4703646 0.353714,-0.4703646 0.01653,-0.01649 0.01653,-0.01649 0.03364,-0.01649 0.01633,0 0.03364,0.03356 0.06709,0.08418 l 0.03364,-0.01707 -0.185121,-0.285128 z m 0.470776,0.7050616 c 0.06728,0.06769 0.05075,0.117543 -0.218568,0.335753 -0.252208,0.201723 -0.269514,0.218792 -0.336601,0.134611 l -0.03364,0.01649 0.420995,0.50392 0.235096,-0.168168 -0.01653,-0.03355 c -0.285849,0.201715 -0.454441,-0.134038 -0.454441,-0.134038 0,-0.01707 0.08439,-0.08418 0.269515,-0.235085 0.0842,0.134611 0.06709,0.18446 -0.01731,0.252154 l 0.01731,0.03356 0.285654,-0.252348 -0.01633,-0.01649 c -0.08439,0.06711 -0.135146,0.08418 -0.252986,-0.03336 l 0.219345,-0.184654 c 0.117257,-0.01707 0.353131,0.268059 0.100728,0.402865 l 0.01653,0.01629 0.219346,-0.167586 -0.420801,-0.486851 z m 0.488082,0.570838 c 0.135146,0.134805 0.06728,0.134805 -0.151481,0.402865 -0.218567,0.252348 -0.235096,0.218792 -0.319295,0.134611 l -0.03364,0.01649 0.285849,0.252348 0.01711,-0.01707 c -0.11784,-0.117723 -0.101506,-0.10046 0.15148,-0.352226 l 0.04997,0.05004 c 0.06728,0.06692 0.06728,0.117543 0,0.218016 -0.134174,0.201724 -0.100728,0.23528 -0.06709,0.268641 0.06709,0.06711 0.15148,0.05082 0.235874,-0.04985 0.01633,-0.01707 0.01633,-0.03414 -0.01731,-0.01707 -0.352936,0.184655 0.151675,-0.251572 -0.0842,-0.369308 0.168592,0.117736 0.252986,0.100473 0.320073,0.03355 0.08439,-0.08399 0.06728,-0.201723 -0.05075,-0.319265 l -0.302951,-0.285118 z m -0.03345,0.419933 c 0.252208,-0.285128 0.202233,-0.285128 0.320073,-0.168167 0.151481,0.151099 0.06728,0.235279 -0.01711,0.28571 -0.06728,0.01649 -0.118034,0.03356 -0.302961,-0.117543 m 1.043251,0.402865 c -0.06709,-0.08418 -0.06709,-0.134029 -0.134368,-0.184848 -0.11784,-0.06692 -0.252209,-0.04985 -0.336602,0.06711 -0.03345,0.05063 -0.03345,0.117736 -0.01711,0.168167 0.01711,0.05063 0.05075,0.100474 0.101506,0.151292 0.134368,0.167392 0.168009,0.200948 0.100728,0.284934 -0.05075,0.06711 -0.11784,0.08418 -0.235875,0.01727 -0.117839,-0.06711 -0.15148,-0.218211 -0.06709,-0.369309 l -0.03364,-0.03356 -0.168592,0.251572 0.03422,0.03356 0.100922,-0.01707 c 0,0.06769 0.03345,0.134805 0.11784,0.184654 0.386577,0.134611 0.555169,-0.201141 0.235096,-0.436227 -0.117256,-0.151098 -0.134368,-0.167585 -0.06728,-0.251572 0.05075,-0.05082 0.135146,-0.06711 0.218762,-0.01726 0.08439,0.06711 0.11784,0.168362 0.06786,0.353016 l 0.01653,0.01629 0.151481,-0.234503 -0.03364,-0.01707 z m 0.168593,0.08399 c 0.05075,0.01707 0.08439,0.05063 0.08439,0.100474 0,0.03356 -0.101506,0.21821 -0.286627,0.537476 -0.01633,0.03356 -0.06709,0.03356 -0.15148,-0.01707 l -0.01633,0.03414 0.336601,0.167585 0.01634,-0.03355 c -0.08362,-0.01707 -0.11784,-0.05063 -0.100727,-0.100474 l 0.285849,-0.537476 c 0.01711,-0.05063 0.03442,-0.05063 0.15148,0.01707 l 0.01711,-0.03414 -0.320073,-0.167585 z m 0.285849,0.469782 0.03364,0.01707 c 0.15148,-0.251573 0.30296,-0.201724 0.30296,-0.13403 0.01731,0.01649 -0.01633,0.116961 -0.100727,0.302197 -0.06709,0.184654 -0.11784,0.301615 -0.134369,0.318684 -0.01711,0.01707 -0.06786,0 -0.117839,-0.03356 l -0.01711,0.03356 0.320073,0.13403 0.01653,-0.03356 c -0.134369,-0.04985 -0.118035,-0.04985 0.01711,-0.402671 0.08439,-0.184654 0.117839,-0.268835 0.134368,-0.285128 0.05075,-0.01707 0.218568,-0.03356 0.134952,0.31849 l 0.05017,0.01726 0.0842,-0.285903 -0.58881,-0.234504 z m 1.094198,0.06769 c -0.319489,0.402671 -0.488082,0.604394 -0.504611,0.620881 -0.01711,0.01707 -0.05075,0.01707 -0.0842,0 l -0.01731,0.03356 0.303156,0.08399 v -0.03356 c -0.16801,-0.03336 -0.134369,-0.06692 -0.01653,-0.235085 l 0.302961,0.100473 c 0.05017,0.218792 0,0.218792 -0.0842,0.201723 l -0.01731,0.03356 0.303155,0.08418 0.01711,-0.03356 c -0.05075,-0.01726 -0.08439,-0.03356 -0.08439,-0.08418 l -0.06709,-0.771979 c -0.01711,-0.03356 -0.03364,-0.01707 -0.05075,0 m -0.01653,0.520407 -0.26932,-0.08418 0.218567,-0.302196 z m 0.925411,-0.251766 c -0.0842,-0.101249 -0.353713,-0.252154 -0.454441,0.100668 -0.01633,0.04985 0,0.100474 0.03364,0.151098 0.03364,0.03356 0.08439,0.06692 0.168593,0.100474 0.20165,0.08399 0.218762,0.08399 0.218762,0.201723 0,0.08341 -0.08439,0.13403 -0.202234,0.117543 -0.134368,-0.01707 -0.235096,-0.117543 -0.235096,-0.302197 h -0.05075 l -0.03364,0.285128 0.04998,0.01707 0.06786,-0.06769 c 0.05017,0.06769 0.117256,0.10125 0.20165,0.117737 0.269319,0.05042 0.320072,-0.234512 0.269319,-0.318692 -0.01633,-0.06711 -0.0842,-0.10125 -0.235874,-0.168361 -0.184927,-0.100474 -0.184927,-0.08399 -0.184927,-0.200948 0.01711,-0.06769 0.101506,-0.117543 0.184927,-0.101249 0.118034,0.01726 0.168787,0.08418 0.21954,0.285904 h 0.03345 l 0.01653,-0.285904 h -0.03364 z m 0.589005,0 c 0.134952,0 0.11784,0 0.11784,0.05004 l 0.03364,0.553769 c 0,0.08418 -0.01653,0.117737 -0.100728,0.117737 v 0.03336 l 0.302961,-0.01629 v -0.03355 c -0.118034,0 -0.15148,-0.05063 -0.15148,-0.134806 l -0.03364,-0.587325 0.336601,0.738618 h 0.03364 l 0.202234,-0.77198 0.04997,0.671506 c 0,0.01629 -0.01653,0.05043 -0.06728,0.05043 h -0.06709 l 0.01633,0.03356 0.37102,-0.01707 -0.01711,-0.03356 h -0.06728 c -0.05075,0 -0.06709,0 -0.06709,-0.05062 l -0.03442,-0.603813 c 0,-0.05043 -0.01633,-0.06769 0.118034,-0.06769 v -0.03356 l -0.269515,0.01726 -0.167814,0.654243 -0.303156,-0.620686 -0.252208,0.01629 z m 1.346212,-0.201723 c -0.100727,0.520407 -0.15148,0.789242 -0.167814,0.805535 0,0.01726 -0.01731,0.01726 -0.06728,0.03356 v 0.03414 l 0.285848,-0.05043 v -0.03356 c -0.117839,0.01629 -0.185121,0.03356 -0.117839,-0.201723 L 21.307985,12.81 c 0.168592,0.234503 0.11784,0.201141 0.01711,0.21821 v 0.03356 l 0.31949,-0.06711 -0.01634,-0.03336 c -0.05075,0.01629 -0.08439,0 -0.101506,-0.03433 l -0.403883,-0.654446 c -0.03345,-0.03336 -0.03345,-0.01707 -0.05075,0 m 0.21954,0.487045 -0.286627,0.05043 0.06709,-0.369891 z m 0.689553,-0.671487 c -0.06728,-0.01727 -0.488082,-0.03356 -0.336602,0.318489 0.05075,0.117737 0.135147,0.134806 0.286627,0.117737 0.235096,-0.05004 0.252208,-0.03356 0.285849,0.08399 0.05075,0.06711 0.01711,0.134029 -0.100728,0.184654 -0.135146,0.05063 -0.286627,0 -0.353908,-0.151099 l -0.05075,0.01707 0.101506,0.285128 0.03364,-0.01707 0.06709,-0.100473 c 0.05075,0.05062 0.134368,0.05062 0.218762,0.01707 0.26932,-0.08399 0.185121,-0.386378 0.08439,-0.419739 -0.05075,-0.05082 -0.100728,-0.05082 -0.285849,-0.03356 -0.21954,0.03356 -0.302961,-0.03356 -0.252986,-0.168167 0.0842,-0.184654 0.218567,-0.134029 0.438107,0.05043 l 0.03345,-0.01707 -0.11784,-0.251572 -0.03364,0.01707 z m 0.403689,-0.251767 c 0.05075,0.503339 0.06786,0.77198 0.05075,0.788467 -0.01633,0.01707 -0.03364,0.05063 -0.06709,0.06769 l 0.01633,0.01629 0.269515,-0.133835 -0.01653,-0.03356 c -0.0842,0.06692 -0.151481,0.04985 -0.151481,-0.151099 l 0.269515,-0.134805 c 0.252208,0.168361 0.184927,0.151098 0.06709,0.201723 l 0.01653,0.03356 0.286432,-0.13403 -0.01711,-0.03355 -0.03364,0.01649 c -0.01633,0.01707 -0.05075,0 -0.0842,-0.01649 l -0.571697,-0.520988 c -0.01731,-0.01629 -0.03442,-0.01629 -0.03442,0.03414 m 0.33738,0.385796 -0.252986,0.117543 -0.03364,-0.369309 z m 0.04998,-0.536894 c 0.118034,-0.06769 0.135146,-0.05063 0.151481,-0.03414 0.218762,0.319266 0.336601,0.50392 0.336601,0.537476 0.01711,0.01707 -0.01633,0.05063 -0.06709,0.08399 l 0.01711,0.03356 0.302183,-0.201723 -0.01633,-0.03356 c -0.11784,0.08418 -0.11784,0.05063 -0.134369,0.03356 l -0.168594,-0.251581 c 0.168592,-0.100473 0.168592,-0.100473 0.285849,0.01707 0.15148,0.184654 0.168592,0.151098 0.235679,0.11696 0.08439,-0.05004 0.08439,-0.11696 0.01731,-0.234503 -0.01731,-0.01726 -0.01731,0 -0.01731,0.01629 0.05075,0.335753 -0.202233,-0.167391 -0.403688,-0.01629 0.118034,-0.117737 0.201455,-0.21821 0.100727,-0.31946 -0.04997,-0.0834 -0.167814,-0.0834 -0.319295,0 l -0.336601,0.21821 z m 0.403689,0.134029 c -0.201456,-0.285128 -0.201456,-0.251572 -0.08342,-0.319266 0.285849,-0.167585 0.420023,0.10125 0.08342,0.319266 m 0.320268,-0.604394 c 0.05075,-0.03356 0.06709,-0.05062 0.08439,-0.05062 0.01633,-0.01649 0.184927,0.03414 0.470776,0.134611 l 0.15148,0.184654 c 0.01731,0.01649 0.01731,0.03356 -0.06709,0.117737 l 0.01634,0.03336 0.286626,-0.251572 -0.03345,-0.03356 c -0.08439,0.0834 -0.101505,0.184654 -0.303155,-0.134612 -0.134952,-0.520407 -0.101506,-0.453489 -0.03345,-0.520407 l -0.03364,-0.01707 -0.202234,0.185236 0.01711,0.03356 0.03364,-0.03356 c 0.01634,-0.01707 0.06709,-0.01707 0.08362,0 0.01711,0.01649 0.03345,0.13403 0.0842,0.35224 -0.488082,-0.117737 -0.387354,-0.151098 -0.319295,-0.21821 l -0.01731,-0.03356 -0.252208,0.21821 z m 0.639562,-0.587518 c 0.06709,-0.08399 0.08439,-0.06692 0.100728,-0.05043 0.302961,0.251572 0.454442,0.40267 0.471748,0.419739 0.01633,0.01649 0.01633,0.05063 -0.03364,0.100474 l 0.03364,0.01726 0.235096,-0.268835 -0.03364,-0.03336 c -0.08362,0.133835 -0.08362,0.100474 -0.26932,-0.05082 l -0.01653,-0.167391 c 0.488082,0 0.437329,0.06692 0.353713,0.151098 l 0.03364,0.01629 0.218568,-0.268641 -0.03345,-0.01629 c -0.01711,0.01629 -0.03364,0.03336 -0.06786,0.04985 -0.01653,0 -0.20165,-0.01649 -0.521723,-0.04985 -0.04997,-0.335753 -0.03364,-0.369309 0.01711,-0.437002 l -0.03364,-0.01649 -0.202233,0.235279 0.03364,0.03356 c 0.05075,-0.06711 0.08439,-0.08418 0.101505,-0.01707 0.01634,0.01707 0.04997,0.168168 0.06709,0.453296 -0.387354,-0.318684 -0.320073,-0.285128 -0.235679,-0.369309 l -0.01653,-0.03356 -0.235874,0.285322 z m 0.521723,-0.6550185 c 0.06709,-0.117543 0.06709,-0.117543 0.134369,-0.06692 0.336601,0.2017225 0.505194,0.3192655 0.522306,0.3357525 0.01653,0.01707 0,0.06692 -0.05075,0.117542 l 0.03364,0.01707 0.202233,-0.302197 -0.03364,-0.01707 c -0.06786,0.117543 -0.01711,0.168168 -0.623034,-0.2352785 -0.06728,-0.04985 -0.06728,-0.03356 0.01711,-0.151099 l -0.03364,-0.01649 -0.202234,0.302391 z m 0.320073,-0.671312 c 0.353131,0.352628 0.521723,0.537282 0.538057,0.587131 0.01731,0.03433 0.01731,0.06789 0,0.10125 h 0.03364 l 0.135146,-0.268642 -0.03364,-0.01707 c -0.06786,0.151099 -0.08439,0.134612 -0.235874,-0.03356 l 0.134368,-0.268641 c 0.218762,0 0.235874,0.03414 0.185121,0.117543 l 0.03364,0.01707 0.134952,-0.285128 -0.03345,-0.01707 c -0.01731,0.03356 -0.03364,0.05063 -0.08439,0.06711 l -0.791041,-0.05005 c -0.01653,0 -0.05075,0 -0.01653,0.05004 m 0.521724,0.100473 -0.117839,0.252154 -0.269515,-0.268641 z m -0.302961,-0.419142 c 0.04997,-0.117737 0,-0.168362 0.605922,0.08341 0.06728,0.01707 0.100728,0.101249 0.08362,0.151098 l 0.03364,0.01707 0.101505,-0.302197 -0.03364,-0.01726 c -0.01711,0.08418 0.01634,0.151293 -0.605921,-0.06692 l 0.757402,-0.251572 0.01653,-0.03356 c -0.421001,-0.151098 -0.639763,-0.235085 -0.656097,-0.251572 -0.01711,-0.01707 -0.03364,-0.05063 -0.01711,-0.117542 l -0.03364,-0.01726 -0.08439,0.268835 0.03364,0.01707 c 0.01711,-0.08418 0,-0.168168 0.589588,0.0834 l -0.757597,0.252348 -0.06709,0.167585 z m 0.891771,-0.655019 c 0.06728,0.05043 0.08439,0.08399 0.06728,0.150904 h 0.03345 l 0.06728,-0.284934 -0.03364,-0.01726 c -0.03364,0.151293 -0.03364,0.168168 -0.218762,0.03356 l 0.06728,-0.302197 c 0.302961,-0.0834 0.219346,0 0.202233,0.08418 h 0.03364 l 0.06709,-0.302391 -0.03364,-0.01629 c -0.01633,0.04985 -0.03345,0.06692 -0.06709,0.08341 l -0.773931,0.117543 c -0.01711,0 -0.05075,0 -0.01711,0.03356 z m -0.06709,-0.419934 -0.06728,0.285904 -0.320073,-0.21821 z" />
</svg>
