<?xml version="1.0" encoding="UTF-8" standalone="no"?>
<svg
   xmlns:dc="http://purl.org/dc/elements/1.1/"
   xmlns:cc="http://creativecommons.org/ns#"
   xmlns:rdf="http://www.w3.org/1999/02/22-rdf-syntax-ns#"
   xmlns:svg="http://www.w3.org/2000/svg"
   xmlns="http://www.w3.org/2000/svg"
   xml:space="preserve"
   enable-background="new 0 0 1000 1000"
   viewBox="0 0 786.23603 217.37399"
   height="217.37399"
   width="786.23602"
   y="0px"
   x="0px"
   id="Layer_1"
   version="1.0"><metadata
     id="metadata21"><rdf:RDF><cc:Work
         rdf:about=""><dc:format>image/svg+xml</dc:format><dc:type
           rdf:resource="http://purl.org/dc/dcmitype/StillImage" /><dc:title></dc:title></cc:Work></rdf:RDF></metadata><defs
     id="defs19" /><polygon
     transform="translate(-106.883,-391.314)"
     points="106.883,608.688 165.656,608.688 165.656,569.218 165.656,542.186 231.565,608.688 273.127,608.688 273.127,566.749 206.965,499.999 273.127,433.247 272.981,391.624 231.565,391.314 165.656,457.815 165.656,430.78 165.656,391.314 106.883,391.314 106.883,430.78 106.883,569.218 "
     id="polygon2"
     style="fill:#ffffff" /><path
     style="fill:#ffffff"
     d="m 173.138,90.03799 h 81.39199 v 34.929 H 173.138 Z"
     id="rect4" /><path
     d="M 379.286,66.88 H 334.725 V 51.619 c 0,-7.116 -0.571,-11.648 -1.713,-13.599 -1.14,-1.954 -3.036,-2.931 -5.697,-2.931 -2.884,0 -5.076,1.319 -6.551,3.946 -1.49,2.63 -2.227,6.616 -2.227,11.964 0,6.868 0.834,12.042 2.497,15.516 1.593,3.479 6.11,7.682 13.558,12.591 21.363,14.142 34.818,25.748 40.364,34.812 5.55,9.077 8.323,23.691 8.323,43.863 0,14.669 -1.538,25.474 -4.621,32.419 -3.074,6.958 -9.024,12.776 -17.84,17.484 -8.81,4.706 -19.064,7.058 -30.767,7.058 -12.848,0 -23.803,-2.714 -32.884,-8.137 -9.079,-5.424 -15.029,-12.331 -17.84,-20.729 -2.813,-8.385 -4.218,-20.294 -4.218,-35.726 v -13.468 h 44.567 v 25.039 c 0,7.716 0.628,12.681 1.884,14.876 1.248,2.208 3.47,3.308 6.665,3.308 3.195,0 5.564,-1.395 7.122,-4.193 1.563,-2.807 2.341,-6.952 2.341,-12.457 0,-12.118 -1.479,-20.05 -4.443,-23.783 -3.042,-3.725 -10.531,-9.957 -22.458,-18.688 -11.93,-8.815 -19.83,-15.209 -23.708,-19.195 -3.873,-3.984 -7.083,-9.494 -9.626,-16.529 -2.552,-7.036 -3.82,-16.02 -3.82,-26.951 0,-15.771 1.808,-27.292 5.413,-34.584 3.609,-7.29 9.441,-12.99 17.497,-17.105 8.053,-4.106 17.779,-6.161 29.18,-6.161 12.465,0 23.083,2.246 31.854,6.736 8.78,4.492 14.591,10.149 17.442,16.976 2.847,6.821 4.271,18.418 4.271,34.772 v 8.137 z"
     id="path6"
     style="fill:#ffffff" /><path
     d="M 515.037,94.212 H 467.048 V 58.44 c 0,-10.406 -0.515,-16.902 -1.538,-19.473 -1.028,-2.585 -3.287,-3.873 -6.781,-3.873 -3.948,0 -6.455,1.567 -7.517,4.707 -1.071,3.137 -1.602,9.915 -1.602,20.339 v 95.607 c 0,10.004 0.53,16.527 1.602,19.578 1.062,3.059 3.446,4.576 7.172,4.576 3.573,0 5.907,-1.526 7.012,-4.576 1.095,-3.068 1.652,-10.244 1.652,-21.546 v -25.873 h 47.989 v 8.019 c 0,21.307 -1.357,36.418 -4.05,45.335 -2.702,8.907 -8.66,16.716 -17.897,23.42 -9.229,6.714 -20.615,10.063 -34.138,10.063 -14.058,0 -25.646,-2.84 -34.762,-8.517 -9.118,-5.677 -15.156,-13.547 -18.119,-23.586 -2.967,-10.042 -4.441,-25.156 -4.441,-45.321 V 77.177 c 0,-14.83 0.45,-25.954 1.365,-33.373 0.91,-7.417 3.624,-14.565 8.146,-21.423 4.521,-6.863 10.793,-12.27 18.807,-16.209 8.02,-3.946 17.228,-5.917 27.636,-5.917 14.138,0 25.807,3.049 35.002,9.144 9.186,6.091 15.225,13.7 18.12,22.79 2.882,9.1 4.332,23.257 4.332,42.473 v 19.55 z"
     id="path8"
     style="fill:#ffffff" /><path
     d="m 645.99,4.578 v 137.566 c 0,15.597 -0.463,26.557 -1.373,32.87 -0.911,6.308 -3.604,12.797 -8.091,19.456 -4.489,6.645 -10.393,11.692 -17.725,15.128 -7.328,3.425 -15.972,5.145 -25.925,5.145 -11.023,0 -20.749,-2.031 -29.186,-6.103 -8.428,-4.069 -14.74,-9.363 -18.917,-15.89 -4.176,-6.528 -6.646,-13.418 -7.404,-20.657 -0.766,-7.252 -1.146,-22.486 -1.146,-45.718 V 4.578 h 47.98 v 154.354 c 0,8.985 0.447,14.729 1.314,17.227 0.872,2.504 2.647,3.743 5.302,3.743 3.038,0 4.998,-1.374 5.87,-4.126 0.876,-2.756 1.311,-9.263 1.311,-19.519 V 4.578 Z"
     id="path10"
     style="fill:#ffffff" /><path
     style="fill:#ffffff"
     d="m 783.611,4.578 -27.526,92.938 30.151,112.903 H 736.65 l -19.426,-88.233 v 88.233 H 669.24 V 4.578 h 47.984 v 79.974 l 21.37,-79.974 z"
     id="polygon12" /></svg>