<?xml version="1.0" encoding="UTF-8" standalone="no"?>
<svg
   xmlns:dc="http://purl.org/dc/elements/1.1/"
   xmlns:cc="http://creativecommons.org/ns#"
   xmlns:rdf="http://www.w3.org/1999/02/22-rdf-syntax-ns#"
   xmlns:svg="http://www.w3.org/2000/svg"
   xmlns="http://www.w3.org/2000/svg"
   id="svg5321"
   version="1.1"
   viewBox="0 0 13.229167 13.229167"
   height="13.229167mm"
   width="13.229167mm">
  <defs
     id="defs5315">
    <clipPath
       clipPathUnits="userSpaceOnUse"
       id="clipPath18">
      <path
         d="M 0,600 H 600 V 0 H 0 Z"
         id="path16" />
    </clipPath>
    <clipPath
       clipPathUnits="userSpaceOnUse"
       id="clipPath30">
      <path
         d="M 0,600 H 600 V 0 H 0 Z"
         id="path28" />
    </clipPath>
    <clipPath
       clipPathUnits="userSpaceOnUse"
       id="clipPath2693">
      <path
         d="M 0,70.866 H 70.866 V 0 H 0 Z"
         id="path2691" />
    </clipPath>
    <clipPath
       clipPathUnits="userSpaceOnUse"
       id="clipPath2853">
      <path
         d="M 0,70.866 H 70.866 V 0 H 0 Z"
         id="path2851" />
    </clipPath>
  </defs>
  <metadata
     id="metadata5318">
    <rdf:RDF>
      <cc:Work
         rdf:about="">
        <dc:format>image/svg+xml</dc:format>
        <dc:type
           rdf:resource="http://purl.org/dc/dcmitype/StillImage" />
        <dc:title></dc:title>
      </cc:Work>
    </rdf:RDF>
  </metadata>
  <g
     id="g36"
     transform="matrix(0.05643553,0,0,-0.05643553,15.828747,3.4505552)" />
  <g
     transform="scale(0.61264538)"
     id="g4780">
    <g
       transform="matrix(0.05643553,0,0,-0.05643553,0.81488735,11.189874)"
       id="g20">
      <path
         id="path1329"
         transform="matrix(4.6882406,0,0,-4.6882406,-14.439261,198.27711)"
         d="M 40.806641,0 C 18.269864,2.6122489e-4 2.6122489e-4,18.269864 0,40.806641 2.6177716e-4,63.343418 18.269864,81.61302 40.806641,81.613281 63.343418,81.613019 81.613019,63.343418 81.613281,40.806641 81.61302,18.269864 63.343418,2.6177716e-4 40.806641,0 Z m -0.06055,10.392578 c 0.02113,-2.13e-4 0.04014,-4.26e-4 0.06055,0 0.02003,-4.26e-4 0.04133,-2.13e-4 0.0625,0 8.94472,0.01152 10.767388,5.583499 12.152343,9.63086 0.498051,1.45577 0.576172,2.989519 0.576172,4.53125 0,2.96913 -2.034286,6.387035 -2.095703,9.695312 0.0083,0.794968 -0.09687,1.310083 0.783203,2.654297 0.88029,1.344641 6.941499,5.85852 8.296875,7.890625 2.055353,3.081116 1.614101,4.599785 -0.68164,3.849609 -0.838696,-0.274514 -3.123047,-0.941406 -3.123047,-0.941406 0,0 -0.447801,5.739316 -0.66211,8.519531 -0.427934,5.551552 -3.745134,10.301243 -2.144531,10.988282 1.600384,0.686823 1.746938,0.69732 2.804688,1.298828 1.057538,0.601716 1.5812,2.523247 -1.220703,2.517578 -2.801481,-0.0057 -3.449219,-0.01172 -3.449219,-0.01172 0,0 -7.369112,0.06156 -8.476563,0.158203 -1.302621,0.113688 -2.505957,-0.0051 -2.822265,-0.04102 -0.316536,0.03598 -1.517264,0.154704 -2.820313,0.04102 -1.107024,-0.0966 -8.478516,-0.158203 -8.478516,-0.158203 0,0 -0.647528,0.006 -3.449218,0.01172 -2.801691,0.0058 -2.278243,-1.915862 -1.220703,-2.517578 1.057539,-0.601508 1.204087,-0.612005 2.804687,-1.298828 C 29.243179,66.523899 25.927934,61.896475 25.5,56.222656 c -0.209717,-2.780565 -0.662109,-8.519531 -0.662109,-8.519531 0,0 -2.286093,0.666899 -3.125,0.941406 -2.295744,0.750176 -2.73657,-0.768493 -0.681641,-3.849609 1.355519,-2.032105 7.417014,-6.545984 8.296875,-7.890625 0.880073,-1.344214 0.777068,-1.859116 0.785156,-2.654297 -0.061,-3.308277 -2.097656,-6.725968 -2.097656,-9.695312 0,-1.541731 0.0779,-3.07548 0.576172,-4.53125 1.384954,-4.047361 3.209362,-9.619332 12.154297,-9.63086 z"
         style="opacity:1;fill:#939597;fill-opacity:1;stroke:none;stroke-width:0.16525389;stroke-linecap:butt;stroke-linejoin:round;stroke-miterlimit:4;stroke-dasharray:none;stroke-dashoffset:0;stroke-opacity:1" />
    </g>
    <g
       transform="matrix(0.05643553,0,0,-0.05643553,15.828747,11.814903)"
       id="g32">
      <path
         id="path34"
         transform="matrix(4.6882406,0,0,-4.6882406,-280.47486,209.35221)"
         d="m 40.746094,10.392578 c -8.944934,0.01152 -10.769343,5.583499 -12.154297,9.63086 -0.498268,1.45577 -0.576172,2.98952 -0.576172,4.53125 0,2.969344 2.036653,6.387035 2.097656,9.695312 -0.0081,0.795181 0.09492,1.310083 -0.785156,2.654297 -0.879861,1.344641 -6.941356,5.858519 -8.296875,7.890625 -2.054929,3.081113 -1.614103,4.599784 0.681641,3.849609 0.838907,-0.274516 3.125,-0.941406 3.125,-0.941406 0,0 0.662109,5.731065 0.662109,8.519531 0,5.55155 3.743179,10.301243 2.142578,10.988282 -1.6006,0.686824 -1.747148,0.697323 -2.804687,1.298828 -1.05754,0.601718 -1.580988,2.523337 1.220703,2.517578 2.80169,-0.0055 3.449218,-0.01172 3.449218,-0.01172 0,0 7.371491,0.06158 8.478516,0.158203 1.303048,0.113689 2.503776,-0.0052 2.820313,-0.04102 0.316323,0.03584 1.519644,0.154705 2.822265,0.04102 1.107452,-0.09663 8.476563,-0.158203 8.476563,-0.158203 0,0 0.647741,0.0062 3.449219,0.01172 2.801903,0.0058 2.278242,-1.91586 1.220703,-2.517578 -1.057753,-0.601505 -1.204301,-0.612004 -2.804688,-1.298828 -1.6006,-0.687039 2.144531,-5.436732 2.144531,-10.988282 0,-2.788466 0.66211,-8.519531 0.66211,-8.519531 0,0 2.284352,0.66689 3.123047,0.941406 2.295744,0.750175 2.736996,-0.768496 0.68164,-3.849609 -1.355306,-2.032106 -7.416587,-6.545984 -8.296875,-7.890625 -0.880074,-1.344214 -0.774884,-1.859329 -0.783203,-2.654297 0.06143,-3.308277 2.095703,-6.726182 2.095703,-9.695312 0,-1.54173 -0.07812,-3.07548 -0.576172,-4.53125 -1.384954,-4.047361 -3.207623,-9.619342 -12.152343,-9.63086 -0.02112,-2.13e-4 -0.04245,-4.26e-4 -0.0625,0 -0.02026,-4.26e-4 -0.03943,-2.13e-4 -0.06055,0 z"
         style="fill:none;fill-opacity:1;fill-rule:nonzero;stroke:none;stroke-width:0.21329963" />
    </g>
    <path
       id="path4796"
       d="M 10.780738,3.9909709 C 10.623621,3.9891109 9.7751865,3.9966709 9.1891035,4.3506388 8.6691893,4.6646247 8.3137758,5.1235394 8.1622925,5.8342693 8.3565377,5.9057313 8.5504408,5.977271 8.744686,6.0487265 8.8532652,5.717456 9.1411707,5.4445359 9.5172487,5.4647829 9.8639169,5.4834499 10.135751,5.6729311 10.261906,5.9608766 10.404833,5.8390313 10.59898,5.804515 10.796241,5.8011964 c 0.0049,-8.34e-5 0.0084,0.00213 0.01292,0.00258 0.0046,-4.546e-4 0.008,-0.00267 0.01292,-0.00258 0.198648,0.00334 0.393767,0.038351 0.536918,0.1622639 0.127253,-0.2915555 0.398619,-0.5171702 0.742073,-0.4986774 0.347436,0.018702 0.685474,0.2453013 0.787033,0.5782593 0.18171,-0.066867 0.363454,-0.1336641 0.545186,-0.2005047 C 13.282794,5.127137 12.926739,4.6658251 12.404928,4.3506388 11.818732,3.9966795 10.970354,3.9891609 10.813294,3.9909709 v 5.17e-4 c -0.0042,5.34e-5 -0.0072,-3e-7 -0.0072,0 0,-3e-7 -0.0034,-4.041e-4 -0.0098,-5.17e-4 -0.0054,1.129e-4 -0.0088,5.167e-4 -0.0088,5.17e-4 0,-3e-7 -0.0025,5.34e-5 -0.0067,0 z M 9.5172487,5.6761395 c -0.317337,0.0171 -0.6272591,0.2643224 -0.6087483,0.6087483 0.04227,0.7844539 1.1747096,0.7844539 1.2169796,0 C 10.10838,5.9675508 9.8615619,5.6575721 9.5172487,5.6761395 Z M 12.10107,5.69681 c -0.293753,0 -0.587613,0.195879 -0.608748,0.5880778 0.0171,0.317337 0.264435,0.6273139 0.608748,0.6087486 0.317337,-0.0171 0.62726,-0.2643788 0.608749,-0.6087486 C 12.688712,5.892689 12.394824,5.69681 12.10107,5.69681 Z m -1.29191,0.313676 c -0.0045,5.993e-4 -0.008,0.0025 -0.01292,0.00258 -0.180481,0.00299 -0.368919,0.024142 -0.468189,0.1937866 -4.12e-4,7.038e-4 -0.0011,8.626e-4 -0.0015,0.00155 0.0034,0.025619 0.0094,0.049959 0.01085,0.076481 9.17e-4,0.01705 -0.0016,0.032188 -0.0067,0.044958 C 10.287426,6.7403394 9.964103,7.1295698 9.5172487,7.1055097 9.0905398,7.0825407 8.6716824,6.7482235 8.6966271,6.2848878 c 4.961e-4,-0.00922 0.00335,-0.018182 0.00413,-0.027388 -0.1933706,-0.071135 -0.386431,-0.1422819 -0.5798057,-0.2134241 -0.016646,0.1142156 -0.028703,0.2335382 -0.035657,0.3601847 -0.05779,1.0524099 0.2964866,1.9051257 0.3209105,2.0923787 0.03849,0.2952145 0.025838,0.8598959 0.025838,0.8598959 -0.192446,1.43747 -0.9620149,1.514478 -1.0133751,5.429126 -0.019411,1.482787 0.3150942,2.37169 0.9472293,2.904216 1.036664,0.873057 2.4226589,0.786863 2.4277589,0.787032 10e-5,0 0.0017,-5.7e-5 0.0031,0 0.0015,-5.7e-5 0.0035,0 0.0036,0 0.0051,-1.69e-4 1.390465,0.08603 2.427242,-0.787032 0.632078,-0.532526 0.966639,-1.421429 0.947229,-2.904216 -0.05136,-3.914648 -0.820356,-3.991656 -1.012858,-5.429126 0,0 -0.01265,-0.5646814 0.02584,-0.8598959 0.02444,-0.1873093 0.3787,-1.0398561 0.32091,-2.0923787 -0.0068,-0.1235631 -0.01912,-0.2396771 -0.03514,-0.3513998 -0.184628,0.067925 -0.369316,0.135689 -0.553972,0.2036051 -1.35e-4,0.00971 0.0021,0.018596 0.0015,0.028422 -0.02297,0.4266526 -0.356769,0.8456227 -0.820104,0.820622 -0.464239,-0.025001 -0.795105,-0.3563268 -0.820105,-0.8206219 0.0014,-0.025535 0.0073,-0.050582 0.01085,-0.075964 -4.95e-4,-8.059e-4 -0.0011,-0.00124 -0.0015,-0.00207 -0.09921,-0.1696991 -0.287708,-0.1907364 -0.468189,-0.1937841 -0.0049,-7.99e-5 -0.0084,-0.00199 -0.01292,-0.00258 z M 9.6061323,6.071464 c 0.1744985,0 0.3162596,0.1417611 0.3162596,0.3162596 0,0.1744988 -0.1417611,0.3157429 -0.3162596,0.3157432 -0.1744424,0 -0.3157432,-0.1412444 -0.3157432,-0.3157432 0,-0.1744985 0.1413008,-0.3162596 0.3157432,-0.3162596 z m 2.4060547,0 c 0.174386,0 0.315743,0.1417611 0.315743,0.3162596 0,0.1744988 -0.141357,0.3157429 -0.315743,0.3157432 -0.174555,-3e-7 -0.31626,-0.1412444 -0.31626,-0.3157432 0,-0.1744985 0.141705,-0.3162596 0.31626,-0.3162596 z m -1.631425,1.5363405 h 0.830957 c 0.155198,0 0.207003,0.1022024 0.115239,0.2273763 l -0.363803,0.4966105 c -0.09176,0.1251741 -0.242065,0.1251741 -0.333829,0 L 10.265524,7.8351808 C 10.17376,7.7099503 10.225565,7.6078045 10.380762,7.6078045 Z M 9.553939,12.781132 h 2.484603 c 0.09312,0 0.169499,0.07638 0.169499,0.169499 v 0.458887 c 0,0.09312 -0.07638,0.169499 -0.169499,0.169499 h -0.113171 c -0.09312,0 -0.168982,-0.07638 -0.168982,-0.169499 v -0.0072 c 0,-0.09312 -0.07638,-0.168982 -0.169499,-0.168982 h -1.581299 c -0.093119,0 -0.1694987,0.07586 -0.1694987,0.168982 v 0.0072 c 0,0.09312 -0.07638,0.169499 -0.1694987,0.169499 H 9.553939 c -0.093119,0 -0.1694987,-0.07638 -0.1694987,-0.169499 v -0.458887 c 0,-0.09312 0.07638,-0.169499 0.1694987,-0.169499 z m 0.734322,1.185974 h 1.015442 c 0.09312,0 0.169499,0.07638 0.169499,0.169499 v 0.113172 c 0,0.09312 -0.07638,0.169498 -0.169499,0.169498 h -1.015442 c -0.09312,0 -0.168982,-0.07638 -0.168982,-0.169498 v -0.113172 c 0,-0.09312 0.07586,-0.169498 0.168982,-0.169499 z m -0.7348387,0.840259 h 0.1131713 c 0.093119,0 0.1694987,0.07638 0.1694987,0.169499 v 0.0072 c 0,0.09312 0.07638,0.168982 0.1694987,0.168982 h 1.581299 c 0.09312,0 0.169499,-0.07586 0.169499,-0.168982 v -0.0072 c 0,-0.09312 0.07586,-0.169499 0.168982,-0.169499 h 0.113171 c 0.09312,0 0.169499,0.07638 0.169499,0.169499 v 0.458887 c 0,0.09312 -0.07638,0.169498 -0.169499,0.169498 H 9.5534223 c -0.093119,0 -0.168982,-0.07638 -0.168982,-0.169498 v -0.458887 c 0,-0.09312 0.075863,-0.169499 0.168982,-0.169499 z"
       style="fill:#939597;fill-opacity:1;fill-rule:nonzero;stroke:none;stroke-width:0.05643553" />
  </g>
  <g
     id="g40"
     transform="matrix(0.05643553,0,0,-0.05643553,10.963057,-0.03235253)" />
  <g
     id="g44"
     transform="matrix(0.05643553,0,0,-0.05643553,11.695951,-1.9766525)" />
  <g
     id="g48"
     transform="matrix(0.05643553,0,0,-0.05643553,11.280783,-2.0793538)" />
  <g
     id="g52"
     transform="matrix(0.05643553,0,0,-0.05643553,12.843618,-2.0799859)" />
  <g
     id="g56"
     transform="matrix(0.05643553,0,0,-0.05643553,11.47285,-2.2641463)" />
  <g
     id="g60"
     transform="matrix(0.05643553,0,0,-0.05643553,9.9221428,-1.9766525)" />
  <g
     id="g64"
     transform="matrix(0.05643553,0,0,-0.05643553,10.1257,-2.0793538)" />
  <g
     id="g68"
     transform="matrix(0.05643553,0,0,-0.05643553,8.8306627,-2.2840681)" />
  <g
     id="g72"
     transform="matrix(0.05643553,0,0,-0.05643553,10.327965,-2.1573364)">
    <g
       id="g4813" />
  </g>
  <g
     id="g80"
     transform="matrix(0.05643553,0,0,-0.05643553,13.227752,9.3255842)" />
  <g
     id="g84"
     transform="matrix(0.05643553,0,0,-0.05643553,9.6668341,5.2146622)" />
  <g
     id="g88"
     transform="matrix(0.05643553,0,0,-0.05643553,11.925548,6.4429642)" />
  <g
     id="g92"
     transform="matrix(0.05643553,0,0,-0.05643553,11.473239,5.8853872)" />
</svg>
