<?xml version="1.0" encoding="UTF-8" standalone="no"?>
<svg
   xmlns:dc="http://purl.org/dc/elements/1.1/"
   xmlns:cc="http://creativecommons.org/ns#"
   xmlns:rdf="http://www.w3.org/1999/02/22-rdf-syntax-ns#"
   xmlns:svg="http://www.w3.org/2000/svg"
   xmlns="http://www.w3.org/2000/svg"
   id="svg5321"
   version="1.1"
   viewBox="0 0 21.593765 21.593765"
   height="21.593765mm"
   width="21.593765mm">
  <defs
     id="defs5315">
    <clipPath
       clipPathUnits="userSpaceOnUse"
       id="clipPath18">
      <path
         d="M 0,600 H 600 V 0 H 0 Z"
         id="path16" />
    </clipPath>
    <clipPath
       clipPathUnits="userSpaceOnUse"
       id="clipPath30">
      <path
         d="M 0,600 H 600 V 0 H 0 Z"
         id="path28" />
    </clipPath>
    <clipPath
       clipPathUnits="userSpaceOnUse"
       id="clipPath2693">
      <path
         d="M 0,70.866 H 70.866 V 0 H 0 Z"
         id="path2691" />
    </clipPath>
    <clipPath
       clipPathUnits="userSpaceOnUse"
       id="clipPath2853">
      <path
         d="M 0,70.866 H 70.866 V 0 H 0 Z"
         id="path2851" />
    </clipPath>
  </defs>
  <metadata
     id="metadata5318">
    <rdf:RDF>
      <cc:Work
         rdf:about="">
        <dc:format>image/svg+xml</dc:format>
        <dc:type
           rdf:resource="http://purl.org/dc/dcmitype/StillImage" />
        <dc:title></dc:title>
      </cc:Work>
    </rdf:RDF>
  </metadata>
  <g
     transform="translate(-12.638577,-125.94121)"
     id="layer1">
    <g
       id="g10"
       transform="matrix(0.05643553,0,0,-0.05643553,6.5048115,153.82977)">
      <g
         id="g12">
        <g
           id="g14"
           clip-path="url(#clipPath18)">
          <g
             id="g20"
             transform="translate(123.1255,295.8896)">
            <circle
               style="opacity:1;fill:#f9a72c;fill-opacity:1;stroke:none;stroke-width:0.77474999;stroke-linecap:butt;stroke-linejoin:round;stroke-miterlimit:4;stroke-dasharray:none;stroke-dashoffset:0;stroke-opacity:1"
               id="path1329"
               cx="176.87431"
               cy="-6.9635243"
               r="191.31357"
               transform="scale(1,-1)" />
          </g>
        </g>
      </g>
      <g
         id="g24">
        <g
           id="g26"
           clip-path="url(#clipPath30)">
          <g
             id="g32"
             transform="translate(389.1611,284.8145)">
            <path
               d="m 0,0 c -6.132,9.19 -33.549,29.602 -37.53,35.684 -3.98,6.082 -3.513,8.409 -3.549,12.006 0.276,14.965 9.482,30.428 9.482,43.86 0,6.973 -0.351,13.908 -2.605,20.492 -6.265,18.308 -18.338,34.775 -36.277,40.924 -5.067,1.739 -12.809,1.913 -18.474,1.924 v 0.002 h -0.22 -0.22 v -0.002 c -5.665,-0.011 -13.405,-0.185 -18.476,-1.924 -17.937,-6.149 -30.01,-22.616 -36.276,-40.924 -2.252,-6.584 -2.604,-13.519 -2.604,-20.492 0,-13.432 9.206,-28.895 9.483,-43.86 -0.036,-3.597 0.43,-5.924 -3.55,-12.006 -3.98,-6.082 -31.398,-26.494 -37.529,-35.684 -9.296,-13.938 -7.299,-20.808 3.085,-17.414 3.796,1.24 14.134,4.256 14.134,4.256 0,0 5.159,-25.927 5.159,-38.54 0,-52.563 27.209,-67.214 66.574,-67.389 v -0.004 c 0.074,0 0.147,0.003 0.22,0.003 0.073,0 0.147,-0.003 0.22,-0.003 v 0.004 c 39.364,0.175 69.547,14.826 69.547,67.389 0,12.613 2.186,38.54 2.186,38.54 0,0 10.339,-3.016 14.133,-4.256 C 7.298,-20.808 9.295,-13.938 0,0"
               style="fill:#ffffff;fill-opacity:1;fill-rule:nonzero;stroke:none"
               id="path34" />
          </g>
          <g
             id="g36"
             transform="translate(389.1611,284.8145)">
            <path
               d="m 0,0 c -6.132,9.19 -33.549,29.602 -37.53,35.684 -3.98,6.082 -3.513,8.409 -3.549,12.006 0.276,14.965 9.482,30.428 9.482,43.86 0,6.973 -0.351,13.908 -2.605,20.492 -6.265,18.308 -18.338,34.775 -36.277,40.924 -5.067,1.739 -12.809,1.913 -18.474,1.924 v 0.002 h -0.22 -0.22 v -0.002 c -5.665,-0.011 -13.405,-0.185 -18.476,-1.924 -17.937,-6.149 -30.01,-22.616 -36.276,-40.924 -2.252,-6.584 -2.604,-13.519 -2.604,-20.492 0,-13.432 9.206,-28.895 9.483,-43.86 -0.036,-3.597 0.43,-5.924 -3.55,-12.006 -3.98,-6.082 -31.398,-26.494 -37.529,-35.684 -9.296,-13.938 -7.299,-20.808 3.085,-17.414 3.796,1.24 14.134,4.256 14.134,4.256 0,0 5.159,-25.927 5.159,-38.54 0,-52.563 27.209,-67.214 66.574,-67.389 v -0.004 c 0.074,0 0.147,0.003 0.22,0.003 0.073,0 0.147,-0.003 0.22,-0.003 v 0.004 c 39.364,0.175 69.547,14.826 69.547,67.389 0,12.613 2.186,38.54 2.186,38.54 0,0 10.339,-3.016 14.133,-4.256 C 7.298,-20.808 9.295,-13.938 0,0 Z"
               style="fill:none;stroke:#231f20;stroke-width:1;stroke-linecap:butt;stroke-linejoin:miter;stroke-miterlimit:4;stroke-dasharray:none;stroke-opacity:1"
               id="path38" />
          </g>
          <g
             id="g40"
             transform="translate(302.9443,346.5293)">
            <path
               d="m 0,0 c -1.626,-2.218 -4.286,-2.218 -5.912,0 l -6.451,8.8 c -1.626,2.219 -0.706,4.033 2.044,4.033 H 4.406 c 2.75,0 3.67,-1.815 2.044,-4.033 z"
               style="fill:#f9a72c;fill-opacity:1;fill-rule:nonzero;stroke:none"
               id="path42" />
          </g>
          <g
             id="g44"
             transform="translate(315.9307,380.981)">
            <path
               d="m 0,0 c 0,-3.092 2.507,-5.598 5.6,-5.598 3.09,0 5.597,2.506 5.597,5.598 C 11.197,3.092 8.69,5.599 5.6,5.599 2.507,5.599 0,3.092 0,0"
               style="fill:#100f0d;fill-opacity:1;fill-rule:nonzero;stroke:none"
               id="path46" />
          </g>
          <g
             id="g48"
             transform="translate(308.5742,382.8008)">
            <path
               d="M 0,0 C 0.443,-8.227 6.309,-14.092 14.535,-14.535 22.745,-14.978 28.662,-7.56 29.069,0 29.512,8.209 22.096,14.127 14.535,14.534 6.326,14.976 0.407,7.56 0,0 -0.13,-2.417 3.62,-2.405 3.75,0 4.499,13.899 24.571,13.899 25.319,0 25.647,-6.102 20.158,-10.482 14.535,-10.785 8.434,-11.114 4.053,-5.623 3.75,0 3.62,2.405 -0.13,2.417 0,0"
               style="fill:#231f20;fill-opacity:1;fill-rule:nonzero;stroke:none"
               id="path50" />
          </g>
          <g
             id="g52"
             transform="translate(336.2666,382.812)">
            <path
               d="m 0,0 c 5.055,1.859 10.109,3.719 15.163,5.578 2.25,0.828 1.278,4.453 -0.996,3.616 C 9.112,7.335 4.058,5.476 -0.996,3.616 -3.246,2.789 -2.274,-0.837 0,0"
               style="fill:#231f20;fill-opacity:1;fill-rule:nonzero;stroke:none"
               id="path54" />
          </g>
          <g
             id="g56"
             transform="translate(311.9775,386.0752)">
            <path
               d="m 0,0 c -2.466,4.218 -6.958,5.221 -11.535,5.298 -2.419,0.04 -2.415,-3.71 0,-3.75 3.198,-0.054 6.539,-0.434 8.297,-3.441 C -2.019,-3.979 1.223,-2.092 0,0"
               style="fill:#231f20;fill-opacity:1;fill-rule:nonzero;stroke:none"
               id="path58" />
          </g>
          <g
             id="g60"
             transform="translate(284.5,380.981)">
            <path
               d="m 0,0 c 0,-3.092 -2.507,-5.598 -5.599,-5.598 -3.091,0 -5.597,2.506 -5.597,5.598 0,3.092 2.506,5.599 5.597,5.599 C -2.507,5.599 0,3.092 0,0"
               style="fill:#100f0d;fill-opacity:1;fill-rule:nonzero;stroke:none"
               id="path62" />
          </g>
          <g
             id="g64"
             transform="translate(288.1069,382.8008)">
            <path
               d="m 0,0 c -0.749,-13.9 -20.822,-13.9 -21.571,0 -0.328,6.103 5.163,10.481 10.786,10.784 C -4.684,11.113 -0.303,5.623 0,0 0.129,-2.405 3.88,-2.417 3.75,0 3.307,8.227 -2.558,14.091 -10.785,14.534 -18.995,14.976 -24.914,7.561 -25.321,0 -25.763,-8.21 -18.346,-14.128 -10.785,-14.535 -2.576,-14.977 3.343,-7.561 3.75,0 3.88,2.417 0.129,2.405 0,0"
               style="fill:#231f20;fill-opacity:1;fill-rule:nonzero;stroke:none"
               id="path66" />
          </g>
          <g
             id="g68"
             transform="translate(265.1597,386.4282)">
            <path
               d="M 0,0 C -5.054,1.859 -10.108,3.719 -15.162,5.578 -17.437,6.415 -18.408,2.79 -16.159,1.962 -11.105,0.103 -6.051,-1.757 -0.997,-3.616 1.278,-4.453 2.25,-0.828 0,0"
               style="fill:#231f20;fill-opacity:1;fill-rule:nonzero;stroke:none"
               id="path70" />
          </g>
          <g
             id="g72"
             transform="translate(291.6909,384.1826)">
            <path
               d="m 0,0 c 1.759,3.006 5.099,3.387 8.297,3.44 2.416,0.041 2.42,3.791 0,3.75 C 3.72,7.113 -0.771,6.109 -3.238,1.893 -4.462,-0.199 -1.22,-2.085 0,0"
               style="fill:#231f20;fill-opacity:1;fill-rule:nonzero;stroke:none"
               id="path74" />
          </g>
          <g
             id="g76"
             transform="translate(343.0732,180.7129)">
            <path
               d="m 0,0 c -18.371,-15.47 -42.922,-13.941 -43.012,-13.944 -0.002,0 -0.036,-10e-4 -0.062,-0.002 -0.025,10e-4 -0.059,0.002 -0.061,0.002 -0.09,0.003 -24.642,-1.526 -43.011,13.944 -11.201,9.436 -17.13,25.188 -16.786,51.462 0.91,69.365 14.54,70.73 17.95,96.201 0,0 0.228,10.007 -0.454,15.238 -0.432,3.318 -6.71,18.422 -5.686,37.07 1.024,18.649 8.074,29.452 19.559,36.388 10.385,6.272 25.416,6.409 28.2,6.376 v -0.005 c 0.074,-10e-4 0.124,-0.002 0.124,-0.002 0,0 0.059,0.002 0.154,0.004 0.113,-0.002 0.178,-0.004 0.178,-0.004 0,0 0.049,0.001 0.124,0.002 v 0.006 c 2.783,0.032 17.813,-0.105 28.2,-6.377 C -3.1,229.423 3.95,218.62 4.974,199.972 5.998,181.322 -0.278,166.22 -0.711,162.901 -1.393,157.67 -1.165,147.663 -1.165,147.663 2.246,122.192 15.875,120.827 16.785,51.462 17.129,25.188 11.2,9.436 0,0 m 49.64,103.448 c -6.354,9.527 -34.771,30.683 -38.898,36.987 -4.126,6.302 -3.64,8.717 -3.679,12.444 0.288,15.51 9.829,31.539 9.829,45.459 0,7.228 -0.365,14.416 -2.7,21.241 -6.493,18.975 -15.041,45.101 -56.976,45.155 -0.099,0.001 -0.195,-0.002 -0.289,-0.004 -0.095,0.002 -0.19,0.005 -0.289,0.004 -41.936,-0.054 -50.484,-26.18 -56.977,-45.155 -2.336,-6.825 -2.7,-14.013 -2.7,-21.241 0,-13.921 9.543,-29.949 9.829,-45.459 -0.038,-3.728 0.446,-6.142 -3.68,-12.444 -4.125,-6.304 -32.543,-27.46 -38.898,-36.987 -9.634,-14.445 -7.564,-21.566 3.199,-18.049 3.933,1.287 14.648,4.411 14.648,4.411 0,0 3.101,-26.872 3.101,-39.945 0,-26.027 17.556,-48.29 10.052,-51.511 -7.504,-3.22 -8.192,-3.266 -13.15,-6.086 -4.958,-2.821 -7.416,-11.837 5.719,-11.81 13.135,0.026 16.172,0.053 16.172,0.053 0,0 34.556,-0.287 39.746,-0.74 6.109,-0.533 11.744,0.029 13.228,0.197 1.483,-0.168 7.119,-0.73 13.226,-0.197 5.192,0.453 39.746,0.74 39.746,0.74 0,0 3.038,-0.027 16.172,-0.053 13.136,-0.027 10.678,8.989 5.72,11.81 -4.959,2.82 -5.647,2.866 -13.15,6.086 -7.504,3.221 10.051,25.484 10.051,51.511 0,13.073 3.103,39.945 3.103,39.945 0,0 10.715,-3.124 14.647,-4.411 10.763,-3.517 12.834,3.604 3.198,18.049"
               style="fill:#231f20;fill-opacity:1;fill-rule:nonzero;stroke:none"
               id="path78" />
          </g>
          <g
             id="g80"
             transform="translate(343.0732,180.7129)">
            <path
               d="m 0,0 c -18.371,-15.47 -42.922,-13.941 -43.012,-13.944 -0.002,0 -0.036,-10e-4 -0.062,-0.002 -0.025,10e-4 -0.059,0.002 -0.061,0.002 -0.09,0.003 -24.642,-1.526 -43.011,13.944 -11.201,9.436 -17.13,25.188 -16.786,51.462 0.91,69.365 14.54,70.73 17.95,96.201 0,0 0.228,10.007 -0.454,15.238 -0.432,3.318 -6.71,18.422 -5.686,37.07 1.024,18.649 8.074,29.452 19.559,36.388 10.385,6.272 25.416,6.409 28.2,6.376 v -0.005 c 0.074,-10e-4 0.124,-0.002 0.124,-0.002 0,0 0.059,0.002 0.154,0.004 0.113,-0.002 0.178,-0.004 0.178,-0.004 0,0 0.049,0.001 0.124,0.002 v 0.006 c 2.783,0.032 17.813,-0.105 28.2,-6.377 C -3.1,229.423 3.95,218.62 4.974,199.972 5.998,181.322 -0.278,166.22 -0.711,162.901 -1.393,157.67 -1.165,147.663 -1.165,147.663 2.246,122.192 15.875,120.827 16.785,51.462 17.129,25.188 11.2,9.436 0,0 Z m 49.64,103.448 c -6.354,9.527 -34.771,30.683 -38.898,36.987 -4.126,6.302 -3.64,8.717 -3.679,12.444 0.288,15.51 9.829,31.539 9.829,45.459 0,7.228 -0.365,14.416 -2.7,21.241 -6.493,18.975 -15.041,45.101 -56.976,45.155 -0.099,0.001 -0.195,-0.002 -0.289,-0.004 -0.095,0.002 -0.19,0.005 -0.289,0.004 -41.936,-0.054 -50.484,-26.18 -56.977,-45.155 -2.336,-6.825 -2.7,-14.013 -2.7,-21.241 0,-13.921 9.543,-29.949 9.829,-45.459 -0.038,-3.728 0.446,-6.142 -3.68,-12.444 -4.125,-6.304 -32.543,-27.46 -38.898,-36.987 -9.634,-14.445 -7.564,-21.566 3.199,-18.049 3.933,1.287 14.648,4.411 14.648,4.411 0,0 3.101,-26.872 3.101,-39.945 0,-26.027 17.556,-48.29 10.052,-51.511 -7.504,-3.22 -8.192,-3.266 -13.15,-6.086 -4.958,-2.821 -7.416,-11.837 5.719,-11.81 13.135,0.026 16.172,0.053 16.172,0.053 0,0 34.556,-0.287 39.746,-0.74 6.109,-0.533 11.744,0.029 13.228,0.197 1.483,-0.168 7.119,-0.73 13.226,-0.197 5.192,0.453 39.746,0.74 39.746,0.74 0,0 3.038,-0.027 16.172,-0.053 13.136,-0.027 10.678,8.989 5.72,11.81 -4.959,2.82 -5.647,2.866 -13.15,6.086 -7.504,3.221 10.051,25.484 10.051,51.511 0,13.073 3.103,39.945 3.103,39.945 0,0 10.715,-3.124 14.647,-4.411 10.763,-3.517 12.834,3.604 3.198,18.049 z"
               style="fill:none;stroke:#231f20;stroke-width:1;stroke-linecap:butt;stroke-linejoin:miter;stroke-miterlimit:4;stroke-dasharray:none;stroke-opacity:1"
               id="path82" />
          </g>
          <g
             id="g84"
             transform="translate(279.9761,253.5557)">
            <path
               d="m 0,0 c 1.65,0 3,1.35 3,3 v 0.13 c 0,1.65 1.35,3 3,3 h 28.023 c 1.65,0 3,-1.35 3,-3 V 3 c 0,-1.65 1.35,-3 3,-3 h 2.006 c 1.65,0 3,1.35 3,3 v 8.134 c 0,1.65 -1.35,3 -3,3 H -2.005 c -1.65,0 -3,-1.35 -3,-3 V 3 c 0,-1.65 1.35,-3 3,-3 z"
               style="fill:#f9a72c;fill-opacity:1;fill-rule:nonzero;stroke:none"
               id="path86" />
          </g>
          <g
             id="g88"
             transform="translate(319.999,231.791)">
            <path
               d="m 0,0 c -1.65,0 -3,-1.35 -3,-3 v -0.129 c 0,-1.65 -1.35,-3 -3,-3 h -28.023 c -1.65,0 -3,1.35 -3,3 V -3 c 0,1.65 -1.35,3 -3,3 h -2.005 c -1.65,0 -3,-1.35 -3,-3 v -8.135 c 0,-1.65 1.35,-3 3,-3 H 2.006 c 1.65,0 3,1.35 3,3 V -3 c 0,1.65 -1.35,3 -3,3 z"
               style="fill:#f9a72c;fill-opacity:1;fill-rule:nonzero;stroke:none"
               id="path90" />
          </g>
          <g
             id="g92"
             transform="translate(311.9844,241.6709)">
            <path
               d="m 0,0 c 0,-1.65 -1.35,-3 -3,-3 h -17.993 c -1.65,0 -3,1.35 -3,3 v 2.006 c 0,1.65 1.35,3 3,3 H -3 c 1.65,0 3,-1.35 3,-3 z"
               style="fill:#f9a72c;fill-opacity:1;fill-rule:nonzero;stroke:none"
               id="path94" />
          </g>
        </g>
      </g>
    </g>
  </g>
</svg>
