<?xml version="1.0" encoding="UTF-8" standalone="no"?>
<svg
   xmlns:dc="http://purl.org/dc/elements/1.1/"
   xmlns:cc="http://creativecommons.org/ns#"
   xmlns:rdf="http://www.w3.org/1999/02/22-rdf-syntax-ns#"
   xmlns:svg="http://www.w3.org/2000/svg"
   xmlns="http://www.w3.org/2000/svg"
   id="svg8"
   version="1.1"
   viewBox="0 0 130 44.755459"
   height="44.755459mm"
   width="130mm">
  <defs
     id="defs2">
    <clipPath
       clipPathUnits="userSpaceOnUse"
       id="clipPath4560">
      <path
         d="M 0,82.21 H 174.25 V 0 H 0 Z"
         id="path4558" />
    </clipPath>
    <clipPath
       clipPathUnits="userSpaceOnUse"
       id="clipPath4560-3">
      <path
         d="M 0,82.21 H 174.25 V 0 H 0 Z"
         id="path4558-6" />
    </clipPath>
    <clipPath
       clipPathUnits="userSpaceOnUse"
       id="clipPath4560-7">
      <path
         d="M 0,82.21 H 174.25 V 0 H 0 Z"
         id="path4558-0" />
    </clipPath>
    <clipPath
       clipPathUnits="userSpaceOnUse"
       id="clipPath5141">
      <path
         d="M 0,77.453 H 100.528 V 0 H 0 Z"
         id="path5139" />
    </clipPath>
    <clipPath
       clipPathUnits="userSpaceOnUse"
       id="clipPath5141-7">
      <path
         d="M 0,77.453 H 100.528 V 0 H 0 Z"
         id="path5139-9" />
    </clipPath>
    <clipPath
       clipPathUnits="userSpaceOnUse"
       id="clipPath5301">
      <path
         d="M 0,77.453 H 100.528 V 0 H 0 Z"
         id="path5299" />
    </clipPath>
    <clipPath
       clipPathUnits="userSpaceOnUse"
       id="clipPath5301-2">
      <path
         d="M 0,77.453 H 100.528 V 0 H 0 Z"
         id="path5299-9" />
    </clipPath>
  </defs>
  <metadata
     id="metadata5">
    <rdf:RDF>
      <cc:Work
         rdf:about="">
        <dc:format>image/svg+xml</dc:format>
        <dc:type
           rdf:resource="http://purl.org/dc/dcmitype/StillImage" />
        <dc:title></dc:title>
      </cc:Work>
    </rdf:RDF>
  </metadata>
  <g
     transform="translate(-45,-108.79366)"
     id="layer1">
    <g
       style="fill:#ffffff;fill-opacity:1"
       id="g5291"
       transform="matrix(0.87756485,0,0,-0.87756485,33.395082,165.15438)">
      <path
         d="m 23.153,64.224 h 3.3 V 43.225 h -3.3 z m -1.229,0 h 1.109 l -2.04,-20.999 h -1.109 z m -5.311,0 h 1.111 l 2.04,-20.999 h -1.111 z m -3.389,0 h 3.271 V 43.225 h -3.271 z"
         style="fill:#ffffff;fill-opacity:1;fill-rule:nonzero;stroke:none"
         id="path5293" />
      <g
         style="fill:#ffffff;fill-opacity:1"
         id="g5295">
        <g
           style="fill:#ffffff;fill-opacity:1"
           id="g5297"
           clip-path="url(#clipPath5301)">
          <g
             style="fill:#ffffff;fill-opacity:1"
             id="g5303"
             transform="translate(38.8428,64.2236)">
            <path
               d="m 0,0 v -16.05 c 0,-1.138 1.021,-1.949 1.98,-1.949 0.96,0 1.98,0.811 1.98,1.949 V 0 h 3.3 v -16.169 c 0,-2.82 -2.55,-5.01 -5.28,-5.01 -2.73,0 -5.28,2.19 -5.28,5.01 L -3.3,0 Z"
               style="fill:#ffffff;fill-opacity:1;fill-rule:nonzero;stroke:none"
               id="path5305" />
          </g>
          <path
             d="m 67.373,43.225 h -3.301 v 20.999 h 3.301 z m -6.54,20.999 3.12,-20.999 h -1.14 l -3.12,20.999 z m -1.26,-20.999 h -3.3 v 20.999 h 3.3 z"
             style="fill:#ffffff;fill-opacity:1;fill-rule:nonzero;stroke:none"
             id="path5307" />
          <g
             style="fill:#ffffff;fill-opacity:1"
             id="g5309"
             transform="translate(81.1426,44.3945)">
            <path
               d="m 0,0 v 18.659 h -2.819 v 1.17 H 6.15 v -1.17 H 3.3 V 0 H 6.15 V -1.17 H -2.819 V 0 Z"
               style="fill:#ffffff;fill-opacity:1;fill-rule:nonzero;stroke:none"
               id="path5311" />
          </g>
          <g
             style="fill:#ffffff;fill-opacity:1"
             id="g5313"
             transform="translate(15.3838,34.2236)" />
          <g
             style="fill:#ffffff;fill-opacity:1"
             id="g5317"
             transform="translate(40.0127,14.2744)" />
        </g>
      </g>
    </g>
    <g
       transform="matrix(0.87756485,0,0,-0.87756485,98.395082,165.15438)"
       id="g4795"
       style="fill:#939597;fill-opacity:1">
      <path
         id="path4771"
         style="fill:#939597;fill-opacity:1;fill-rule:nonzero;stroke:none"
         d="m 23.153,64.224 h 3.3 V 43.225 h -3.3 z m -1.229,0 h 1.109 l -2.04,-20.999 h -1.109 z m -5.311,0 h 1.111 l 2.04,-20.999 h -1.111 z m -3.389,0 h 3.271 V 43.225 h -3.271 z" />
      <g
         id="g4793"
         style="fill:#939597;fill-opacity:1">
        <g
           clip-path="url(#clipPath5301)"
           id="g4791"
           style="fill:#939597;fill-opacity:1">
          <g
             transform="translate(38.8428,64.2236)"
             id="g4775"
             style="fill:#939597;fill-opacity:1">
            <path
               id="path4773"
               style="fill:#939597;fill-opacity:1;fill-rule:nonzero;stroke:none"
               d="m 0,0 v -16.05 c 0,-1.138 1.021,-1.949 1.98,-1.949 0.96,0 1.98,0.811 1.98,1.949 V 0 h 3.3 v -16.169 c 0,-2.82 -2.55,-5.01 -5.28,-5.01 -2.73,0 -5.28,2.19 -5.28,5.01 L -3.3,0 Z" />
          </g>
          <path
             id="path4777"
             style="fill:#939597;fill-opacity:1;fill-rule:nonzero;stroke:none"
             d="m 67.373,43.225 h -3.301 v 20.999 h 3.301 z m -6.54,20.999 3.12,-20.999 h -1.14 l -3.12,20.999 z m -1.26,-20.999 h -3.3 v 20.999 h 3.3 z" />
          <g
             transform="translate(81.1426,44.3945)"
             id="g4781"
             style="fill:#939597;fill-opacity:1">
            <path
               id="path4779"
               style="fill:#939597;fill-opacity:1;fill-rule:nonzero;stroke:none"
               d="m 0,0 v 18.659 h -2.819 v 1.17 H 6.15 v -1.17 H 3.3 V 0 H 6.15 V -1.17 H -2.819 V 0 Z" />
          </g>
          <g
             transform="translate(15.3838,34.2236)"
             id="g4785"
             style="fill:#939597;fill-opacity:1" />
          <g
             transform="translate(40.0127,14.2744)"
             id="g4789"
             style="fill:#939597;fill-opacity:1" />
        </g>
      </g>
    </g>
  </g>
</svg>
