<?xml version="1.0" encoding="UTF-8" standalone="no"?>
<svg
   xmlns:dc="http://purl.org/dc/elements/1.1/"
   xmlns:cc="http://creativecommons.org/ns#"
   xmlns:rdf="http://www.w3.org/1999/02/22-rdf-syntax-ns#"
   xmlns:svg="http://www.w3.org/2000/svg"
   xmlns="http://www.w3.org/2000/svg"
   id="svg8"
   version="1.1"
   viewBox="0 0 130 44.913155"
   height="44.913155mm"
   width="130mm">
  <defs
     id="defs2">
    <clipPath
       clipPathUnits="userSpaceOnUse"
       id="clipPath4560">
      <path
         d="M 0,82.21 H 174.25 V 0 H 0 Z"
         id="path4558" />
    </clipPath>
    <clipPath
       clipPathUnits="userSpaceOnUse"
       id="clipPath4560-3">
      <path
         d="M 0,82.21 H 174.25 V 0 H 0 Z"
         id="path4558-6" />
    </clipPath>
    <clipPath
       clipPathUnits="userSpaceOnUse"
       id="clipPath4560-7">
      <path
         d="M 0,82.21 H 174.25 V 0 H 0 Z"
         id="path4558-0" />
    </clipPath>
    <clipPath
       clipPathUnits="userSpaceOnUse"
       id="clipPath5141">
      <path
         d="M 0,77.453 H 100.528 V 0 H 0 Z"
         id="path5139" />
    </clipPath>
    <clipPath
       clipPathUnits="userSpaceOnUse"
       id="clipPath5141-7">
      <path
         d="M 0,77.453 H 100.528 V 0 H 0 Z"
         id="path5139-9" />
    </clipPath>
  </defs>
  <metadata
     id="metadata5">
    <rdf:RDF>
      <cc:Work
         rdf:about="">
        <dc:format>image/svg+xml</dc:format>
        <dc:type
           rdf:resource="http://purl.org/dc/dcmitype/StillImage" />
        <dc:title></dc:title>
      </cc:Work>
    </rdf:RDF>
  </metadata>
  <g
     transform="translate(-45,-108.71481)"
     id="layer1">
    <g
       style="fill:#ffffff;fill-opacity:1"
       id="g5131"
       transform="matrix(0.87756485,0,0,-0.87756485,33.394205,165.07553)">
      <path
         d="m 23.154,64.224 h 3.3 V 43.225 h -3.3 z m -1.23,0 h 1.11 l -2.04,-20.999 h -1.11 z m -5.31,0 h 1.111 l 2.039,-20.999 h -1.11 z m -3.389,0 h 3.27 V 43.225 h -3.27 z"
         style="fill:#ffffff;fill-opacity:1;fill-rule:nonzero;stroke:none"
         id="path5133" />
      <g
         style="fill:#ffffff;fill-opacity:1"
         id="g5135">
        <g
           style="fill:#ffffff;fill-opacity:1"
           id="g5137"
           clip-path="url(#clipPath5141)">
          <g
             style="fill:#ffffff;fill-opacity:1"
             id="g5143"
             transform="translate(38.8438,64.2236)">
            <path
               d="m 0,0 v -16.049 c 0,-1.14 1.021,-1.95 1.98,-1.95 0.96,0 1.98,0.81 1.98,1.95 V 0 h 3.3 v -16.17 c 0,-2.819 -2.55,-5.01 -5.28,-5.01 -2.73,0 -5.28,2.191 -5.28,5.01 L -3.3,0 Z"
               style="fill:#ffffff;fill-opacity:1;fill-rule:nonzero;stroke:none"
               id="path5145" />
          </g>
          <path
             d="m 67.374,43.225 h -3.301 v 20.999 h 3.301 z m -6.54,20.999 3.12,-20.999 h -1.141 l -3.119,20.999 z m -1.26,-20.999 h -3.3 v 20.999 h 3.3 z"
             style="fill:#ffffff;fill-opacity:1;fill-rule:nonzero;stroke:none"
             id="path5147" />
          <g
             style="fill:#ffffff;fill-opacity:1"
             id="g5149"
             transform="translate(81.1436,44.3945)">
            <path
               d="m 0,0 v 18.659 h -2.819 v 1.17 H 6.15 v -1.17 H 3.3 V 0 H 6.15 V -1.17 H -2.819 V 0 Z"
               style="fill:#ffffff;fill-opacity:1;fill-rule:nonzero;stroke:none"
               id="path5151" />
          </g>
          <g
             style="fill:#ffffff;fill-opacity:1"
             id="g5153"
             transform="translate(14.6338,18.0547)">
            <path
               d="M 0,0 V 0.72 H 1.62 V 0.029 c 0,-1.949 1.71,-3.479 3.601,-3.479 1.859,0 3.54,1.53 3.54,3.479 V 1.26 C 8.761,3.749 6.72,4.439 4.8,4.859 2.971,5.279 0,6.39 0,9.899 v 1.44 c 0,2.881 2.311,5.01 5.19,5.01 2.88,0 5.19,-2.129 5.19,-5.01 V 10.56 H 8.761 v 0.75 c 0,1.949 -1.711,3.479 -3.571,3.479 -1.889,0 -3.57,-1.53 -3.57,-3.479 V 9.899 c 0,-2.46 2.07,-3.15 3.901,-3.57 C 7.5,5.88 10.38,4.71 10.38,1.29 V 0 C 10.38,-2.97 8.07,-5.01 5.19,-5.01 2.311,-5.01 0,-2.97 0,0"
               style="fill:#ffffff;fill-opacity:1;fill-rule:nonzero;stroke:none"
               id="path5155" />
          </g>
          <g
             style="fill:#ffffff;fill-opacity:1"
             id="g5157"
             transform="translate(35.8438,18.0547)">
            <path
               d="m 0,0 v 11.339 c 0,2.881 2.34,5.01 5.19,5.01 2.88,0 5.19,-2.129 5.19,-5.01 V 10.56 H 8.76 v 0.75 c 0,1.949 -1.71,3.479 -3.57,3.479 -1.919,0 -3.57,-1.53 -3.57,-3.479 V 0.029 c 0,-1.949 1.651,-3.479 3.57,-3.479 1.86,0 3.57,1.53 3.57,3.479 V 0.72 h 1.62 V 0 C 10.38,-2.97 8.07,-5.01 5.19,-5.01 2.34,-5.01 0,-2.97 0,0"
               style="fill:#ffffff;fill-opacity:1;fill-rule:nonzero;stroke:none"
               id="path5159" />
          </g>
          <g
             style="fill:#ffffff;fill-opacity:1"
             id="g5161"
             transform="translate(61.0137,14.2744)">
            <path
               d="m 0,0 v 18.899 h -3.66 v 1.05 h 8.94 v -1.05 H 1.62 V 0 H 5.28 V -1.05 H -3.66 V 0 Z"
               style="fill:#ffffff;fill-opacity:1;fill-rule:nonzero;stroke:none"
               id="path5163" />
          </g>
        </g>
      </g>
    </g>
    <g
       transform="matrix(0.87756485,0,0,-0.87756485,98.394205,165.07553)"
       id="g4800"
       style="fill:#939597;fill-opacity:1">
      <path
         id="path4772"
         style="fill:#939597;fill-opacity:1;fill-rule:nonzero;stroke:none"
         d="m 23.154,64.224 h 3.3 V 43.225 h -3.3 z m -1.23,0 h 1.11 l -2.04,-20.999 h -1.11 z m -5.31,0 h 1.111 l 2.039,-20.999 h -1.11 z m -3.389,0 h 3.27 V 43.225 h -3.27 z" />
      <g
         id="g4798"
         style="fill:#939597;fill-opacity:1">
        <g
           clip-path="url(#clipPath5141)"
           id="g4796"
           style="fill:#939597;fill-opacity:1">
          <g
             transform="translate(38.8438,64.2236)"
             id="g4776"
             style="fill:#939597;fill-opacity:1">
            <path
               id="path4774"
               style="fill:#939597;fill-opacity:1;fill-rule:nonzero;stroke:none"
               d="m 0,0 v -16.049 c 0,-1.14 1.021,-1.95 1.98,-1.95 0.96,0 1.98,0.81 1.98,1.95 V 0 h 3.3 v -16.17 c 0,-2.819 -2.55,-5.01 -5.28,-5.01 -2.73,0 -5.28,2.191 -5.28,5.01 L -3.3,0 Z" />
          </g>
          <path
             id="path4778"
             style="fill:#939597;fill-opacity:1;fill-rule:nonzero;stroke:none"
             d="m 67.374,43.225 h -3.301 v 20.999 h 3.301 z m -6.54,20.999 3.12,-20.999 h -1.141 l -3.119,20.999 z m -1.26,-20.999 h -3.3 v 20.999 h 3.3 z" />
          <g
             transform="translate(81.1436,44.3945)"
             id="g4782"
             style="fill:#939597;fill-opacity:1">
            <path
               id="path4780"
               style="fill:#939597;fill-opacity:1;fill-rule:nonzero;stroke:none"
               d="m 0,0 v 18.659 h -2.819 v 1.17 H 6.15 v -1.17 H 3.3 V 0 H 6.15 V -1.17 H -2.819 V 0 Z" />
          </g>
          <g
             transform="translate(14.6338,18.0547)"
             id="g4786"
             style="fill:#939597;fill-opacity:1">
            <path
               id="path4784"
               style="fill:#939597;fill-opacity:1;fill-rule:nonzero;stroke:none"
               d="M 0,0 V 0.72 H 1.62 V 0.029 c 0,-1.949 1.71,-3.479 3.601,-3.479 1.859,0 3.54,1.53 3.54,3.479 V 1.26 C 8.761,3.749 6.72,4.439 4.8,4.859 2.971,5.279 0,6.39 0,9.899 v 1.44 c 0,2.881 2.311,5.01 5.19,5.01 2.88,0 5.19,-2.129 5.19,-5.01 V 10.56 H 8.761 v 0.75 c 0,1.949 -1.711,3.479 -3.571,3.479 -1.889,0 -3.57,-1.53 -3.57,-3.479 V 9.899 c 0,-2.46 2.07,-3.15 3.901,-3.57 C 7.5,5.88 10.38,4.71 10.38,1.29 V 0 C 10.38,-2.97 8.07,-5.01 5.19,-5.01 2.311,-5.01 0,-2.97 0,0" />
          </g>
          <g
             transform="translate(35.8438,18.0547)"
             id="g4790"
             style="fill:#939597;fill-opacity:1">
            <path
               id="path4788"
               style="fill:#939597;fill-opacity:1;fill-rule:nonzero;stroke:none"
               d="m 0,0 v 11.339 c 0,2.881 2.34,5.01 5.19,5.01 2.88,0 5.19,-2.129 5.19,-5.01 V 10.56 H 8.76 v 0.75 c 0,1.949 -1.71,3.479 -3.57,3.479 -1.919,0 -3.57,-1.53 -3.57,-3.479 V 0.029 c 0,-1.949 1.651,-3.479 3.57,-3.479 1.86,0 3.57,1.53 3.57,3.479 V 0.72 h 1.62 V 0 C 10.38,-2.97 8.07,-5.01 5.19,-5.01 2.34,-5.01 0,-2.97 0,0" />
          </g>
          <g
             transform="translate(61.0137,14.2744)"
             id="g4794"
             style="fill:#939597;fill-opacity:1">
            <path
               id="path4792"
               style="fill:#939597;fill-opacity:1;fill-rule:nonzero;stroke:none"
               d="m 0,0 v 18.899 h -3.66 v 1.05 h 8.94 v -1.05 H 1.62 V 0 H 5.28 V -1.05 H -3.66 V 0 Z" />
          </g>
        </g>
      </g>
    </g>
  </g>
</svg>
