<?xml version="1.0" encoding="UTF-8" standalone="no"?>
<!-- Created with Inkscape (http://www.inkscape.org/) -->

<svg
   xmlns:dc="http://purl.org/dc/elements/1.1/"
   xmlns:cc="http://creativecommons.org/ns#"
   xmlns:rdf="http://www.w3.org/1999/02/22-rdf-syntax-ns#"
   xmlns:svg="http://www.w3.org/2000/svg"
   xmlns="http://www.w3.org/2000/svg"
   xmlns:sodipodi="http://sodipodi.sourceforge.net/DTD/sodipodi-0.dtd"
   xmlns:inkscape="http://www.inkscape.org/namespaces/inkscape"
   version="1.1"
   id="svg2"
   xml:space="preserve"
   width="500"
   height="500"
   viewBox="0 0 500 500"
   sodipodi:docname="karlik.svg"
   inkscape:version="0.92.1 r15371"><metadata
     id="metadata8"><rdf:RDF><cc:Work
         rdf:about=""><dc:format>image/svg+xml</dc:format><dc:type
           rdf:resource="http://purl.org/dc/dcmitype/StillImage" /><dc:title></dc:title></cc:Work></rdf:RDF></metadata><defs
     id="defs6"><clipPath
       clipPathUnits="userSpaceOnUse"
       id="clipPath18"><path
         d="M 0,600 H 600 V 0 H 0 Z"
         id="path16"
         inkscape:connector-curvature="0" /></clipPath></defs><sodipodi:namedview
     pagecolor="#ffffff"
     bordercolor="#666666"
     borderopacity="1"
     objecttolerance="10"
     gridtolerance="10"
     guidetolerance="10"
     inkscape:pageopacity="0"
     inkscape:pageshadow="2"
     inkscape:window-width="1920"
     inkscape:window-height="1182"
     id="namedview4"
     showgrid="false"
     inkscape:zoom="0.834386"
     inkscape:cx="214.31192"
     inkscape:cy="504.8044"
     inkscape:window-x="0"
     inkscape:window-y="0"
     inkscape:window-maximized="1"
     inkscape:current-layer="g10" /><g
     id="g10"
     inkscape:groupmode="layer"
     inkscape:label="karlik_sport"
     transform="matrix(1.3333333,0,0,-1.3333333,0,500)"><g
       id="g12"
       transform="translate(-107.27854,-113.52971)"><g
         id="g14"
         clip-path="url(#clipPath18)"><g
           id="g20"
           transform="translate(378.1396,282.8242)"><path
             d="m 0,0 c -6.188,9.275 -33.857,29.875 -37.876,36.013 -4.016,6.138 -3.545,8.487 -3.582,12.117 0.279,15.102 9.57,30.709 9.57,44.264 0,7.037 -0.354,14.036 -2.629,20.681 -6.322,18.477 -18.506,35.096 -36.611,41.301 -5.114,1.755 -12.927,1.931 -18.644,1.941 v 0.002 h -0.221 -0.223 v -0.002 c -5.717,-0.01 -13.529,-0.186 -18.646,-1.941 -18.102,-6.205 -30.287,-22.824 -36.611,-41.301 -2.272,-6.645 -2.628,-13.644 -2.628,-20.681 0,-13.555 9.291,-29.162 9.571,-44.264 -0.037,-3.63 0.433,-5.979 -3.583,-12.117 C -146.13,29.875 -173.8,9.275 -179.987,0 c -9.382,-14.065 -7.367,-20.998 3.113,-17.574 3.83,1.252 14.264,4.295 14.264,4.295 0,0 5.207,-26.165 5.207,-38.895 0,-53.047 27.459,-67.833 67.187,-68.011 v -0.003 c 0.074,0 0.149,0.003 0.223,0.003 0.072,0 0.146,-0.003 0.221,-0.003 v 0.003 c 39.727,0.178 70.187,14.964 70.187,68.011 0,12.73 2.207,38.895 2.207,38.895 0,0 10.435,-3.043 14.263,-4.295 C 7.365,-20.998 9.381,-14.065 0,0"
             style="fill:#ffffff;fill-opacity:1;fill-rule:nonzero;stroke:none"
             id="path22"
             inkscape:connector-curvature="0" /></g><g
           id="g24"
           transform="translate(378.1396,282.8242)"><path
             d="m 0,0 c -6.188,9.275 -33.857,29.875 -37.876,36.013 -4.016,6.138 -3.545,8.487 -3.582,12.117 0.279,15.102 9.57,30.709 9.57,44.264 0,7.037 -0.354,14.036 -2.629,20.681 -6.322,18.477 -18.506,35.096 -36.611,41.301 -5.114,1.755 -12.927,1.931 -18.644,1.941 v 0.002 h -0.221 -0.223 v -0.002 c -5.717,-0.01 -13.529,-0.186 -18.646,-1.941 -18.102,-6.205 -30.287,-22.824 -36.611,-41.301 -2.272,-6.645 -2.628,-13.644 -2.628,-20.681 0,-13.555 9.291,-29.162 9.571,-44.264 -0.037,-3.63 0.433,-5.979 -3.583,-12.117 C -146.13,29.875 -173.8,9.275 -179.987,0 c -9.382,-14.065 -7.367,-20.998 3.113,-17.574 3.83,1.252 14.264,4.295 14.264,4.295 0,0 5.207,-26.165 5.207,-38.895 0,-53.047 27.459,-67.833 67.187,-68.011 v -0.003 c 0.074,0 0.149,0.003 0.223,0.003 0.072,0 0.146,-0.003 0.221,-0.003 v 0.003 c 39.727,0.178 70.187,14.964 70.187,68.011 0,12.73 2.207,38.895 2.207,38.895 0,0 10.435,-3.043 14.263,-4.295 C 7.365,-20.998 9.381,-14.065 0,0 Z"
             style="fill:none;stroke:#231f20;stroke-width:1;stroke-linecap:butt;stroke-linejoin:miter;stroke-miterlimit:4;stroke-dasharray:none;stroke-opacity:1"
             id="path26"
             inkscape:connector-curvature="0" /></g><g
           id="g28"
           transform="translate(290.9561,345.0708)"><path
             d="m 0,0 c -1.626,-2.218 -4.286,-2.218 -5.912,0 l -6.565,8.956 c -1.626,2.218 -0.706,4.033 2.044,4.033 H 4.521 c 2.75,0 3.669,-1.815 2.043,-4.033 z"
             style="fill:#fbb041;fill-opacity:1;fill-rule:nonzero;stroke:none"
             id="path30"
             inkscape:connector-curvature="0" /></g><g
           id="g32"
           transform="translate(304.0898,379.877)"><path
             d="M 0,0 C 0,-3.12 2.529,-5.649 5.65,-5.649 8.77,-5.649 11.3,-3.12 11.3,0 11.3,3.12 8.77,5.65 5.65,5.65 2.529,5.65 0,3.12 0,0"
             style="fill:#000000;fill-opacity:1;fill-rule:nonzero;stroke:none"
             id="path34"
             inkscape:connector-curvature="0" /></g><g
           id="g36"
           transform="translate(272.3691,379.877)"><path
             d="m 0,0 c 0,-3.12 -2.53,-5.649 -5.65,-5.649 -3.121,0 -5.649,2.529 -5.649,5.649 0,3.12 2.528,5.65 5.649,5.65 C -2.53,5.65 0,3.12 0,0"
             style="fill:#000000;fill-opacity:1;fill-rule:nonzero;stroke:none"
             id="path38"
             inkscape:connector-curvature="0" /></g><g
           id="g40"
           transform="translate(311.334,370.812)"><path
             d="m 0,0 c -6.168,-0.332 -10.596,5.219 -10.901,10.902 0.756,14.049 21.045,14.049 21.802,0 C 11.233,4.734 5.684,0.306 0,0 m -57.112,10.902 c -0.331,6.168 5.219,10.595 10.903,10.9 6.167,0.332 10.595,-5.216 10.901,-10.9 -0.757,-14.051 -21.048,-14.051 -21.804,0 M 27.58,20.174 C 23.098,18.526 18.615,16.877 14.133,15.228 12.327,21.189 6.213,25.218 0,25.552 c -6.138,0.331 -11,-3.699 -13.272,-8.912 -2.557,2.218 -6.052,2.837 -9.603,2.896 -0.083,10e-4 -0.155,-0.012 -0.232,-0.019 -0.075,0.006 -0.146,0.02 -0.227,0.018 -3.531,-0.059 -7.007,-0.67 -9.561,-2.855 -2.25,5.151 -7.116,8.539 -13.314,8.872 -6.723,0.362 -11.922,-4.502 -13.856,-10.426 -4.576,1.683 -9.15,3.366 -13.724,5.048 -2.276,0.837 -3.247,-2.788 -0.998,-3.614 4.66,-1.715 9.317,-3.429 13.976,-5.142 -0.015,-0.172 -0.042,-0.344 -0.051,-0.516 -0.446,-8.276 7.031,-14.242 14.653,-14.652 8.073,-0.435 13.932,6.67 14.596,14.093 0.041,0.171 0.066,0.353 0.055,0.559 0.011,0.202 -0.014,0.381 -0.053,0.549 -0.025,0.3 -0.046,0.601 -0.086,0.894 1.785,3.001 5.143,3.387 8.363,3.44 0.082,0.002 0.155,0.017 0.231,0.027 0.076,-0.009 0.147,-0.025 0.228,-0.026 3.222,-0.054 6.583,-0.44 8.367,-3.449 -0.043,-0.291 -0.062,-0.584 -0.088,-0.876 -0.041,-0.171 -0.066,-0.353 -0.055,-0.559 -0.011,-0.203 0.013,-0.382 0.052,-0.55 0.676,-8 6.493,-13.666 14.599,-14.102 8.276,-0.446 14.241,7.031 14.651,14.652 0.01,0.181 -0.005,0.355 -0.002,0.534 4.642,1.707 9.285,3.415 13.927,5.123 2.25,0.827 1.278,4.452 -0.996,3.615"
             style="fill:#231f20;fill-opacity:1;fill-rule:nonzero;stroke:none"
             id="path42"
             inkscape:connector-curvature="0" /></g><g
           id="g44"
           transform="translate(331.7617,177.7646)"><path
             d="m 0,0 c -18.54,-15.613 -43.318,-14.071 -43.408,-14.073 -0.002,0 -0.037,-10e-4 -0.063,-0.002 -0.025,10e-4 -0.059,0.002 -0.061,0.002 -0.091,0.002 -24.869,-1.54 -43.408,14.073 -11.304,9.521 -17.289,25.419 -16.941,51.936 0.918,70.002 14.674,71.38 18.116,97.087 0,0 0.23,10.098 -0.458,15.377 -0.437,3.35 -6.771,18.592 -5.738,37.412 1.032,18.822 8.148,29.724 19.738,36.724 10.481,6.33 25.651,6.468 28.46,6.435 v -0.005 c 0.074,-0.001 0.126,-0.003 0.126,-0.003 0,0 0.059,0.002 0.155,0.005 0.115,-0.003 0.179,-0.005 0.179,-0.005 0,0 0.05,0.002 0.125,0.003 v 0.007 c 2.81,0.031 17.979,-0.107 28.46,-6.437 11.591,-7 18.705,-17.902 19.739,-36.723 C 6.054,182.992 -0.28,167.75 -0.717,164.4 -1.405,159.121 -1.176,149.022 -1.176,149.022 2.267,123.316 16.021,121.938 16.94,51.936 17.287,25.419 11.304,9.521 0,0 m 50.098,104.4 c -6.412,9.615 -35.092,30.965 -39.256,37.328 -4.164,6.36 -3.675,8.797 -3.714,12.559 0.29,15.652 9.92,31.829 9.92,45.878 0,7.294 -0.368,14.548 -2.724,21.436 -6.553,19.15 -15.179,45.517 -57.503,45.572 -0.099,10e-4 -0.196,-0.003 -0.292,-0.005 -0.095,0.002 -0.191,0.006 -0.291,0.005 -42.322,-0.055 -50.949,-26.422 -57.502,-45.572 -2.357,-6.888 -2.724,-14.142 -2.724,-21.436 0,-14.05 9.631,-30.226 9.92,-45.878 -0.039,-3.763 0.449,-6.199 -3.715,-12.559 -4.162,-6.363 -32.842,-27.713 -39.256,-37.328 -9.724,-14.578 -7.634,-21.764 3.228,-18.214 3.969,1.297 14.784,4.451 14.784,4.451 0,0 3.129,-27.119 3.129,-40.313 0,-26.266 17.717,-48.735 10.144,-51.986 -7.572,-3.25 -8.267,-3.296 -13.271,-6.143 -5.002,-2.846 -7.484,-11.945 5.772,-11.918 13.255,0.028 16.32,0.053 16.32,0.053 0,0 34.874,-0.289 40.113,-0.746 6.166,-0.538 11.853,0.029 13.349,0.198 1.498,-0.169 7.186,-0.736 13.35,-0.198 5.238,0.457 40.112,0.746 40.112,0.746 0,0 3.066,-0.025 16.32,-0.053 13.258,-0.027 10.778,9.072 5.773,11.918 -5.004,2.847 -5.698,2.893 -13.273,6.143 -7.572,3.251 10.146,25.72 10.146,51.986 0,13.194 3.131,40.313 3.131,40.313 0,0 10.813,-3.154 14.783,-4.451 10.861,-3.55 12.952,3.636 3.227,18.214"
             style="fill:#231f20;fill-opacity:1;fill-rule:nonzero;stroke:none"
             id="path46"
             inkscape:connector-curvature="0" /></g><g
           id="g48"
           transform="translate(331.7617,177.7646)"><path
             d="m 0,0 c -18.54,-15.613 -43.318,-14.071 -43.408,-14.073 -0.002,0 -0.037,-10e-4 -0.063,-0.002 -0.025,10e-4 -0.059,0.002 -0.061,0.002 -0.091,0.002 -24.869,-1.54 -43.408,14.073 -11.304,9.521 -17.289,25.419 -16.941,51.936 0.918,70.002 14.674,71.38 18.116,97.087 0,0 0.23,10.098 -0.458,15.377 -0.437,3.35 -6.771,18.592 -5.738,37.412 1.032,18.822 8.148,29.724 19.738,36.724 10.481,6.33 25.651,6.468 28.46,6.435 v -0.005 c 0.074,-0.001 0.126,-0.003 0.126,-0.003 0,0 0.059,0.002 0.155,0.005 0.115,-0.003 0.179,-0.005 0.179,-0.005 0,0 0.05,0.002 0.125,0.003 v 0.007 c 2.81,0.031 17.979,-0.107 28.46,-6.437 11.591,-7 18.705,-17.902 19.739,-36.723 C 6.054,182.992 -0.28,167.75 -0.717,164.4 -1.405,159.121 -1.176,149.022 -1.176,149.022 2.267,123.316 16.021,121.938 16.94,51.936 17.287,25.419 11.304,9.521 0,0 Z m 50.098,104.4 c -6.412,9.615 -35.092,30.965 -39.256,37.328 -4.164,6.36 -3.675,8.797 -3.714,12.559 0.29,15.652 9.92,31.829 9.92,45.878 0,7.294 -0.368,14.548 -2.724,21.436 -6.553,19.15 -15.179,45.517 -57.503,45.572 -0.099,10e-4 -0.196,-0.003 -0.292,-0.005 -0.095,0.002 -0.191,0.006 -0.291,0.005 -42.322,-0.055 -50.949,-26.422 -57.502,-45.572 -2.357,-6.888 -2.724,-14.142 -2.724,-21.436 0,-14.05 9.631,-30.226 9.92,-45.878 -0.039,-3.763 0.449,-6.199 -3.715,-12.559 -4.162,-6.363 -32.842,-27.713 -39.256,-37.328 -9.724,-14.578 -7.634,-21.764 3.228,-18.214 3.969,1.297 14.784,4.451 14.784,4.451 0,0 3.129,-27.119 3.129,-40.313 0,-26.266 17.717,-48.735 10.144,-51.986 -7.572,-3.25 -8.267,-3.296 -13.271,-6.143 -5.002,-2.846 -7.484,-11.945 5.772,-11.918 13.255,0.028 16.32,0.053 16.32,0.053 0,0 34.874,-0.289 40.113,-0.746 6.166,-0.538 11.853,0.029 13.349,0.198 1.498,-0.169 7.186,-0.736 13.35,-0.198 5.238,0.457 40.112,0.746 40.112,0.746 0,0 3.066,-0.025 16.32,-0.053 13.258,-0.027 10.778,9.072 5.773,11.918 -5.004,2.847 -5.698,2.893 -13.273,6.143 -7.572,3.251 10.146,25.72 10.146,51.986 0,13.194 3.131,40.313 3.131,40.313 0,0 10.813,-3.154 14.783,-4.451 10.861,-3.55 12.952,3.636 3.227,18.214 z"
             style="fill:none;stroke:#231f20;stroke-width:1;stroke-linecap:butt;stroke-linejoin:miter;stroke-miterlimit:4;stroke-dasharray:none;stroke-opacity:1"
             id="path50"
             inkscape:connector-curvature="0" /></g><g
           id="g52"
           transform="translate(241.667,425.8896)"><path
             d="m 0,0 -5.648,-9.667 c 0,0 20.314,-9.667 51.981,-9.667 C 78,-19.334 99,-9.667 99,-9.667 L 93.745,0 Z"
             style="fill:#fbb041;fill-opacity:1;fill-rule:nonzero;stroke:none"
             id="path54"
             inkscape:connector-curvature="0" /></g><g
           id="g56"
           transform="translate(367.46,276.7656)"><path
             d="M 0,0 V -65.229"
             style="fill:#ffffff;fill-opacity:1;fill-rule:nonzero;stroke:none"
             id="path58"
             inkscape:connector-curvature="0" /></g><g
           id="g60"
           transform="translate(400.0742,244.1514)"><path
             d="m 0,0 c 0,-18.013 -14.602,-32.614 -32.614,-32.614 -18.013,0 -32.615,14.601 -32.615,32.614 0,18.013 14.602,32.614 32.615,32.614 C -14.602,32.614 0,18.013 0,0"
             style="fill:#fbb041;fill-opacity:1;fill-rule:nonzero;stroke:none"
             id="path62"
             inkscape:connector-curvature="0" /></g><g
           id="g64"
           transform="translate(367.46,275.2656)"><path
             d="m 0,0 c -17.157,0 -31.115,-13.958 -31.115,-31.114 0,-17.157 13.958,-31.114 31.115,-31.114 17.156,0 31.114,13.957 31.114,31.114 C 31.114,-13.958 17.156,0 0,0 m 0,-65.228 c -18.812,0 -34.115,15.303 -34.115,34.114 C -34.115,-12.304 -18.812,3 0,3 18.81,3 34.114,-12.304 34.114,-31.114 34.114,-49.925 18.81,-65.228 0,-65.228"
             style="fill:#ffffff;fill-opacity:1;fill-rule:nonzero;stroke:none"
             id="path66"
             inkscape:connector-curvature="0" /></g><g
           id="g68"
           transform="translate(389.8516,265.7441)"><path
             d="m 0,0 c -6.033,-5.562 -9.466,-13.355 -9.466,-21.593 0,-8.235 3.434,-16.029 9.466,-21.591 5.635,5.829 8.722,13.443 8.722,21.591 C 8.722,-13.441 5.635,-5.827 0,0 m 0.122,-47.246 -1.026,0.862 c -7.348,6.175 -11.562,15.211 -11.562,24.791 0,9.581 4.214,18.618 11.562,24.792 L 0.122,4.062 1.094,3.139 c 6.853,-6.51 10.628,-15.292 10.628,-24.732 0,-9.436 -3.775,-18.219 -10.628,-24.73 z"
             style="fill:#ffffff;fill-opacity:1;fill-rule:nonzero;stroke:none"
             id="path70"
             inkscape:connector-curvature="0" /></g><g
           id="g72"
           transform="translate(345.0684,265.7441)"><path
             d="m 0,0 c -5.636,-5.827 -8.723,-13.442 -8.723,-21.593 0,-8.148 3.087,-15.762 8.723,-21.591 6.032,5.562 9.466,13.356 9.466,21.591 C 9.466,-13.355 6.033,-5.562 0,0 m -0.122,-47.246 -0.972,0.923 c -6.854,6.512 -10.629,15.295 -10.629,24.73 0,9.439 3.775,18.222 10.629,24.732 l 0.972,0.923 1.026,-0.863 c 7.348,-6.174 11.562,-15.211 11.562,-24.792 0,-9.58 -4.214,-18.616 -11.562,-24.791 z"
             style="fill:#ffffff;fill-opacity:1;fill-rule:nonzero;stroke:none"
             id="path74"
             inkscape:connector-curvature="0" /></g><path
           d="m 368.96,211.536 h -3 v 65.229 h 3 z"
           style="fill:#ffffff;fill-opacity:1;fill-rule:nonzero;stroke:none"
           id="path76"
           inkscape:connector-curvature="0" /><g
           id="g78"
           transform="translate(378.6328,263.9502)"><path
             d="m 0,0 c 10.861,-3.55 12.952,3.637 3.227,18.215 -2.604,3.903 -8.877,9.741 -15.69,15.724 H -39.067 C -35.896,24.902 -3.97,1.298 0,0"
             style="fill:#231f20;fill-opacity:1;fill-rule:nonzero;stroke:none"
             id="path80"
             inkscape:connector-curvature="0" /></g><g
           id="g82"
           transform="translate(378.6328,263.9502)"><path
             d="m 0,0 c 10.861,-3.55 12.952,3.637 3.227,18.215 -2.604,3.903 -8.877,9.741 -15.69,15.724 H -39.067 C -35.896,24.902 -3.97,1.298 0,0 Z"
             style="fill:none;stroke:#231f20;stroke-width:1;stroke-linecap:butt;stroke-linejoin:miter;stroke-miterlimit:4;stroke-dasharray:none;stroke-opacity:1"
             id="path84"
             inkscape:connector-curvature="0" /></g><g
           id="g86"
           transform="translate(268.3311,255.0332)"><path
             d="m 0,0 c 1.65,0 3,1.35 3,3 v 0.13 c 0,1.65 1.35,3 3,3 h 28.022 c 1.651,0 3,-1.35 3,-3 V 3 c 0,-1.65 1.35,-3 3,-3 h 2.006 c 1.651,0 3,1.35 3,3 v 8.134 c 0,1.65 -1.349,3 -3,3 H -2.005 c -1.65,0 -3,-1.35 -3,-3 V 3 c 0,-1.65 1.35,-3 3,-3 z"
             style="fill:#fbb041;fill-opacity:1;fill-rule:nonzero;stroke:none"
             id="path88"
             inkscape:connector-curvature="0" /></g><g
           id="g90"
           transform="translate(308.3535,233.2686)"><path
             d="m 0,0 c -1.65,0 -3,-1.35 -3,-3 v -0.129 c 0,-1.65 -1.35,-3 -3,-3 h -28.022 c -1.65,0 -3,1.35 -3,3 V -3 c 0,1.65 -1.35,3 -3,3 h -2.005 c -1.65,0 -3,-1.35 -3,-3 v -8.135 c 0,-1.65 1.35,-3 3,-3 H 2.006 c 1.65,0 3,1.35 3,3 V -3 c 0,1.65 -1.35,3 -3,3 z"
             style="fill:#fbb041;fill-opacity:1;fill-rule:nonzero;stroke:none"
             id="path92"
             inkscape:connector-curvature="0" /></g><g
           id="g94"
           transform="translate(300.3394,243.1484)"><path
             d="m 0,0 c 0,-1.65 -1.35,-3 -3,-3 h -17.993 c -1.65,0 -3,1.35 -3,3 v 2.006 c 0,1.65 1.35,3 3,3 H -3 c 1.65,0 3,-1.35 3,-3 z"
             style="fill:#fbb041;fill-opacity:1;fill-rule:nonzero;stroke:none"
             id="path96"
             inkscape:connector-curvature="0" /></g></g></g></g></svg>