<?xml version="1.0" encoding="UTF-8" standalone="no"?>
<!-- Created with Inkscape (http://www.inkscape.org/) -->

<svg
   xmlns:dc="http://purl.org/dc/elements/1.1/"
   xmlns:cc="http://creativecommons.org/ns#"
   xmlns:rdf="http://www.w3.org/1999/02/22-rdf-syntax-ns#"
   xmlns:svg="http://www.w3.org/2000/svg"
   xmlns="http://www.w3.org/2000/svg"
   xmlns:sodipodi="http://sodipodi.sourceforge.net/DTD/sodipodi-0.dtd"
   xmlns:inkscape="http://www.inkscape.org/namespaces/inkscape"
   width="200mm"
   height="200mm"
   viewBox="0 0 708.66143 708.66141"
   id="svg2"
   version="1.1"
   inkscape:version="0.92.1 r15371"
   sodipodi:docname="los_karlos.svg">
  <defs
     id="defs4">
    <clipPath
       id="clipPath3350"
       clipPathUnits="userSpaceOnUse">
      <path
         inkscape:connector-curvature="0"
         id="path3352"
         d="M 0,600 H 600 V 0 H 0 Z" />
    </clipPath>
  </defs>
  <sodipodi:namedview
     id="base"
     pagecolor="#ffffff"
     bordercolor="#666666"
     borderopacity="1.0"
     inkscape:pageopacity="0.0"
     inkscape:pageshadow="2"
     inkscape:zoom="0.80679761"
     inkscape:cx="-46.500974"
     inkscape:cy="234.81004"
     inkscape:document-units="px"
     inkscape:current-layer="layer1"
     showgrid="false"
     inkscape:window-width="1920"
     inkscape:window-height="1182"
     inkscape:window-x="0"
     inkscape:window-y="0"
     inkscape:window-maximized="1"
     fit-margin-top="0"
     fit-margin-left="0"
     fit-margin-right="0"
     fit-margin-bottom="0" />
  <metadata
     id="metadata7">
    <rdf:RDF>
      <cc:Work
         rdf:about="">
        <dc:format>image/svg+xml</dc:format>
        <dc:type
           rdf:resource="http://purl.org/dc/dcmitype/StillImage" />
        <dc:title></dc:title>
      </cc:Work>
    </rdf:RDF>
  </metadata>
  <g
     inkscape:label="Vrstva 1"
     inkscape:groupmode="layer"
     id="layer1"
     transform="translate(-63.916826,-249.97368)">
    <g
       id="g4535"
       transform="translate(157.44044,-70.424656)">
      <g
         id="g3344"
         inkscape:label="karlik_black_white"
         transform="matrix(1.25,0,0,-1.25,-111.50598,1055.6315)">
        <g
           id="g3346">
          <g
             id="g3348"
             clip-path="url(#clipPath3350)">
            <g
               id="g3354"
               transform="translate(439.8652,275.9893)">
              <path
                 d="m 0,0 c -9.768,14.639 -53.436,47.149 -59.776,56.837 -6.339,9.686 -5.595,13.394 -5.654,19.125 0.441,23.834 15.105,48.465 15.105,69.858 0,11.109 -0.562,22.153 -4.151,32.641 -9.977,29.159 -29.208,55.39 -57.78,65.183 -8.069,2.77 -20.403,3.047 -29.427,3.064 v 0.004 h -0.349 -0.35 v -0.004 c -9.023,-0.017 -21.353,-0.294 -29.43,-3.064 -28.571,-9.792 -47.798,-36.023 -57.779,-65.183 -3.589,-10.488 -4.148,-21.532 -4.148,-32.641 0,-21.393 14.664,-46.024 15.105,-69.858 -0.058,-5.732 0.685,-9.439 -5.654,-19.125 -6.341,-9.688 -50.011,-42.198 -59.776,-56.837 -14.806,-22.199 -11.626,-33.145 4.914,-27.737 6.045,1.975 22.511,6.779 22.511,6.779 0,0 8.219,-41.297 8.219,-61.388 0,-83.72 43.337,-107.057 106.039,-107.337 v -0.006 c 0.119,0 0.233,0.006 0.35,0.006 0.117,0 0.233,-0.006 0.349,-0.006 v 0.006 c 62.702,0.28 110.776,23.617 110.776,107.337 0,20.091 3.481,61.389 3.481,61.389 0,0 16.468,-4.806 22.513,-6.78 C 11.624,-33.144 14.806,-22.199 0,0"
                 style="fill:#ffffff;fill-opacity:1;fill-rule:nonzero;stroke:none"
                 id="path3356"
                 inkscape:connector-curvature="0" />
            </g>
            <g
               id="g3358"
               transform="translate(439.8652,275.9893)">
              <path
                 d="m 0,0 c -9.768,14.639 -53.436,47.149 -59.776,56.837 -6.339,9.686 -5.595,13.394 -5.654,19.125 0.441,23.834 15.105,48.465 15.105,69.858 0,11.109 -0.562,22.153 -4.151,32.641 -9.977,29.159 -29.208,55.39 -57.78,65.183 -8.069,2.77 -20.403,3.047 -29.427,3.064 v 0.004 h -0.349 -0.35 v -0.004 c -9.023,-0.017 -21.353,-0.294 -29.43,-3.064 -28.571,-9.792 -47.798,-36.023 -57.779,-65.183 -3.589,-10.488 -4.148,-21.532 -4.148,-32.641 0,-21.393 14.664,-46.024 15.105,-69.858 -0.058,-5.732 0.685,-9.439 -5.654,-19.125 -6.341,-9.688 -50.011,-42.198 -59.776,-56.837 -14.806,-22.199 -11.626,-33.145 4.914,-27.737 6.045,1.975 22.511,6.779 22.511,6.779 0,0 8.219,-41.297 8.219,-61.388 0,-83.72 43.337,-107.057 106.039,-107.337 v -0.006 c 0.119,0 0.233,0.006 0.35,0.006 0.117,0 0.233,-0.006 0.349,-0.006 v 0.006 c 62.702,0.28 110.776,23.617 110.776,107.337 0,20.091 3.481,61.389 3.481,61.389 0,0 16.468,-4.806 22.513,-6.78 C 11.624,-33.144 14.806,-22.199 0,0 Z"
                 style="fill:none;stroke:#000000;stroke-width:1;stroke-linecap:butt;stroke-linejoin:miter;stroke-miterlimit:4;stroke-dasharray:none;stroke-opacity:1"
                 id="path3360"
                 inkscape:connector-curvature="0" />
            </g>
            <g
               id="g3362"
               transform="translate(302.54,374.29)">
              <path
                 d="m 0,0 c -2.59,-3.533 -6.826,-3.535 -9.416,0 l -10.276,14.017 c -2.589,3.534 -1.123,6.422 3.256,6.422 H 7.018 c 4.381,0 5.844,-2.891 3.256,-6.422 z"
                 style="fill:#000000;fill-opacity:1;fill-rule:nonzero;stroke:none"
                 id="path3364"
                 inkscape:connector-curvature="0" />
            </g>
            <g
               id="g3366"
               transform="translate(332.1416,438.0811)">
              <path
                 d="m 0,0 c 4.926,0 8.918,-3.993 8.918,-8.918 0,-4.926 -3.992,-8.918 -8.918,-8.918 -4.925,0 -8.918,3.992 -8.918,8.918 C -8.918,-3.993 -4.925,0 0,0"
                 style="fill:#000000;fill-opacity:1;fill-rule:nonzero;stroke:none"
                 id="path3368"
                 inkscape:connector-curvature="0" />
            </g>
            <g
               id="g3370"
               transform="translate(264.2451,438.0791)">
              <path
                 d="m 0,0 c 4.924,0 8.916,-3.992 8.916,-8.916 0,-4.925 -3.992,-8.916 -8.916,-8.916 -4.924,0 -8.916,3.991 -8.916,8.916 C -8.916,-3.992 -4.924,0 0,0"
                 style="fill:#000000;fill-opacity:1;fill-rule:nonzero;stroke:none"
                 id="path3372"
                 inkscape:connector-curvature="0" />
            </g>
            <g
               id="g3374"
               transform="translate(334.6582,414.8838)">
              <path
                 d="m 0,0 c -9.718,-0.525 -16.695,8.222 -17.179,17.178 1.194,22.138 33.164,22.139 34.356,0 C 17.701,7.46 8.957,0.483 0,0 m -90.11,17.178 c -0.522,9.718 8.225,16.695 17.18,17.176 9.718,0.523 16.696,-8.222 17.178,-17.176 -1.192,-22.14 -33.166,-22.14 -34.358,0 M 43.523,31.84 C 36.456,29.241 29.392,26.641 22.327,24.042 19.461,33.447 9.809,39.8 0.001,40.328 -9.685,40.85 -17.356,34.498 -20.955,26.28 c -4.037,3.484 -9.548,4.458 -15.147,4.553 -0.127,0.001 -0.241,-0.02 -0.361,-0.029 -0.122,0.009 -0.233,0.03 -0.362,0.029 -5.58,-0.095 -11.071,-1.063 -15.106,-4.516 -3.554,8.13 -11.213,13.484 -20.997,14.011 -10.612,0.572 -18.818,-7.101 -21.883,-16.448 -7.213,2.652 -14.426,5.307 -21.638,7.96 -3.622,1.333 -5.172,-4.44 -1.588,-5.76 7.345,-2.702 14.69,-5.404 22.034,-8.107 -0.022,-0.265 -0.063,-0.528 -0.078,-0.795 -0.702,-13.077 11.11,-22.503 23.153,-23.152 12.754,-0.688 22.011,10.534 23.064,22.261 0.065,0.272 0.106,0.563 0.087,0.891 0.019,0.322 -0.022,0.606 -0.084,0.876 -0.038,0.454 -0.11,0.894 -0.168,1.339 2.804,4.774 8.117,5.38 13.205,5.466 0.129,0.002 0.241,0.026 0.362,0.043 0.12,-0.017 0.233,-0.041 0.361,-0.043 5.073,-0.085 10.368,-0.688 13.177,-5.421 -0.064,-0.455 -0.095,-0.912 -0.137,-1.37 -0.065,-0.272 -0.104,-0.562 -0.086,-0.89 -0.019,-0.323 0.021,-0.608 0.083,-0.876 C -21.993,3.663 -12.803,-5.284 0.002,-5.974 13.08,-6.679 22.506,5.135 23.15,17.178 c 0.018,0.278 -0.005,0.548 -0.002,0.823 7.32,2.693 14.642,5.387 21.962,8.079 3.583,1.32 2.037,7.093 -1.587,5.76"
                 style="fill:#000000;fill-opacity:1;fill-rule:nonzero;stroke:none"
                 id="path3376"
                 inkscape:connector-curvature="0" />
            </g>
            <g
               id="g3378"
               transform="translate(366.4561,110.1758)">
              <path
                 d="m 0,0 c -29.261,-24.641 -68.364,-22.206 -68.508,-22.21 -0.003,0 -0.06,0 -0.1,-0.002 -0.039,0.002 -0.093,0.002 -0.096,0.002 -0.144,0.004 -39.251,-2.431 -68.51,22.21 -17.841,15.029 -27.283,40.119 -26.734,81.969 1.448,110.486 23.157,112.659 28.59,153.23 0,0 0.363,15.938 -0.722,24.271 -0.689,5.284 -10.688,29.341 -9.058,59.044 1.631,29.705 12.859,46.912 31.155,57.959 16.541,9.989 40.481,10.207 44.916,10.157 v -0.008 c 0.118,-0.002 0.198,-0.005 0.198,-0.005 0,0 0.094,0.003 0.244,0.006 0.181,-0.003 0.284,-0.006 0.284,-0.006 0,0 0.077,0.003 0.196,0.005 v 0.008 c 4.435,0.05 28.374,-0.167 44.918,-10.157 C -4.936,365.425 6.295,348.219 7.924,318.515 9.555,288.811 -0.441,264.756 -1.131,259.47 -2.217,251.137 -1.857,235.197 -1.857,235.197 3.577,194.627 25.285,192.454 26.737,81.968 27.283,40.119 17.841,15.029 0,0 m 79.066,164.774 c -10.119,15.172 -55.381,48.87 -61.954,58.912 -6.574,10.038 -5.801,13.885 -5.861,19.821 0.458,24.703 15.655,50.235 15.655,72.408 0,11.513 -0.581,22.961 -4.301,33.831 -10.342,30.225 -23.955,71.837 -90.751,71.925 -0.157,0 -0.309,-0.004 -0.46,-0.007 -0.151,0.003 -0.303,0.007 -0.459,0.007 -66.795,-0.087 -80.411,-41.7 -90.755,-71.925 -3.719,-10.87 -4.299,-22.319 -4.299,-33.831 0,-22.174 15.201,-47.705 15.656,-72.408 -0.061,-5.938 0.712,-9.783 -5.863,-19.821 -6.568,-10.042 -51.833,-43.74 -61.953,-58.912 -15.347,-23.01 -12.049,-34.353 5.092,-28.75 6.265,2.048 23.332,7.025 23.332,7.025 0,0 4.941,-42.801 4.941,-63.625 0,-41.455 27.962,-76.916 16.012,-82.046 -11.953,-5.13 -13.05,-5.202 -20.946,-9.694 -7.897,-4.493 -11.813,-18.854 9.109,-18.81 20.92,0.041 25.759,0.083 25.759,0.083 0,0 55.04,-0.456 63.307,-1.178 9.732,-0.85 18.707,0.047 21.069,0.314 2.363,-0.267 11.339,-1.163 21.067,-0.314 8.269,0.722 63.309,1.178 63.309,1.178 0,0 4.835,-0.042 25.759,-0.083 20.922,-0.044 17.008,14.316 9.108,18.81 -7.896,4.492 -8.994,4.564 -20.944,9.694 -11.953,5.13 16.011,40.591 16.011,82.046 0,20.824 4.94,63.625 4.94,63.625 0,0 17.065,-4.978 23.331,-7.025 17.14,-5.602 20.438,5.74 5.089,28.75"
                 style="fill:#000000;fill-opacity:1;fill-rule:nonzero;stroke:none"
                 id="path3380"
                 inkscape:connector-curvature="0" />
            </g>
            <g
               id="g3382"
               transform="translate(265.9551,226.2012)" />
            <g
               id="g3386"
               transform="translate(329.7031,191.5332)" />
            <g
               id="g3390"
               transform="translate(316.9404,207.2705)">
              <g
                 transform="rotate(-90,-19.1088,1.5952)"
                 id="g4434">
                <path
                   transform="translate(-50.985296,18.9307)"
                   inkscape:connector-curvature="0"
                   id="path3384"
                   style="fill:#000000;fill-opacity:1;fill-rule:nonzero;stroke:none"
                   d="m 0,0 c 2.629,0 4.779,2.146 4.779,4.776 v 0.206 c 0,2.631 2.151,4.78 4.778,4.78 h 44.635 c 2.631,0 4.78,-2.149 4.78,-4.78 V 4.776 C 58.972,2.146 61.118,0 63.747,0 h 3.195 c 2.631,0 4.78,2.146 4.78,4.776 v 12.957 c 0,2.627 -2.149,4.778 -4.78,4.778 H -3.193 c -2.628,0 -4.778,-2.151 -4.778,-4.778 V 4.776 C -7.971,2.146 -5.821,0 -3.193,0 Z" />
                <path
                   transform="translate(12.762696,-15.7373)"
                   inkscape:connector-curvature="0"
                   id="path3388"
                   style="fill:#000000;fill-opacity:1;fill-rule:nonzero;stroke:none"
                   d="m 0,0 c -2.629,0 -4.775,-2.149 -4.775,-4.779 v -0.204 c 0,-2.629 -2.149,-4.78 -4.779,-4.78 H -54.19 c -2.627,0 -4.778,2.151 -4.778,4.78 v 0.204 c 0,2.63 -2.149,4.779 -4.779,4.779 h -3.192 c -2.628,0 -4.778,-2.149 -4.778,-4.779 v -12.957 c 0,-2.627 2.15,-4.778 4.778,-4.778 H 3.197 c 2.63,0 4.779,2.151 4.779,4.778 V -4.779 C 7.976,-2.149 5.827,0 3.197,0 Z" />
                <path
                   inkscape:connector-curvature="0"
                   id="path3392"
                   style="fill:#000000;fill-opacity:1;fill-rule:nonzero;stroke:none"
                   d="m 0,0 c 0,-2.628 -2.15,-4.776 -4.78,-4.776 h -28.659 c -2.628,0 -4.779,2.148 -4.779,4.776 v 3.195 c 0,2.628 2.15,4.779 4.779,4.779 H -4.78 C -2.15,7.974 0,5.823 0,3.195 Z" />
              </g>
            </g>
          </g>
        </g>
      </g>
      <path
         sodipodi:nodetypes="ccccccccsssscssssccssssscsccccccccsscsccscscccssccsscccccsscsccc"
         clip-path="none"
         inkscape:connector-curvature="0"
         id="path4277"
         d="m 301.57543,573.43724 c -0.0802,-1.65391 -0.0412,-3.67528 0.0866,-4.49191 0.12787,-0.81663 0.005,-2.15844 -0.27348,-2.9818 -0.50564,-1.49611 -0.85378,-5.39042 -0.54886,-6.13785 0.0889,-0.21769 0.0246,-1.76823 -0.14264,-3.44565 -0.16721,-1.67741 -0.22349,-4.63839 -0.12492,-6.57996 0.0985,-1.94155 -0.0314,-3.56101 -0.28876,-3.5988 -0.25735,-0.0376 -0.41856,-0.38406 -0.35821,-0.76953 0.0721,-0.46035 -0.81633,-0.94786 -2.58936,-1.42085 -4.99321,-1.33204 -7.63804,-3.64029 -14.22243,-12.41245 -6.92798,-9.22989 -11.9714,-17.92531 -13.84534,-23.87079 -1.41577,-4.49191 -2.00473,-5.03947 -7.81625,-7.26689 -1.54625,-0.59266 -4.06881,-1.61167 -5.60567,-2.26446 -7.0391,-2.99003 -10.62236,-4.38369 -14.74669,-5.73552 -4.89243,-1.60361 -10.57834,-3.77639 -16.42475,-6.27647 -6.69296,-2.8621 -13.39488,-5.58989 -16.32153,-6.64313 -3.41016,-1.22723 -12.74843,-9.07358 -18.73282,-15.74002 -2.11553,-2.35663 -10.15894,-10.68635 -17.87424,-18.5105 21.62377,-11.15952 -1.69358,10.35213 2.6751,-3.18314 3.00879,3.04972 6.7818,6.92292 8.38449,8.6071 8.75864,9.20406 20.15702,19.54736 23.96902,21.75036 1.93911,1.12065 29.19572,12.35757 44.64002,18.40348 2.86532,1.12168 5.79597,2.36082 6.51256,2.75369 2.13633,1.17122 5.51058,1.4049 9.37018,0.649 1.99836,-0.39137 4.8879,-0.93778 6.42124,-1.21424 1.53336,-0.27639 4.83429,-1.11429 7.33543,-1.86192 5.63005,-1.68287 12.21328,-3.19209 15.47085,-3.54675 l 2.4653,-0.26843 1.16299,-8.05348 c 0.80542,-5.57655 1.04066,-8.96266 0.76526,-11.00968 -0.2187,-1.62593 -0.37163,-3.90074 -0.33971,-5.05519 0.0319,-1.15444 -0.0284,-3.25068 -0.13417,-4.65832 -0.19614,-2.6118 0.30019,-4.10285 0.54224,-1.62885 0.0732,0.74869 0.33888,1.39148 0.5903,1.42838 0.61725,0.0906 1.24971,-3.81856 0.88434,-5.4664 -0.44105,-1.98925 -0.38805,-7.26794 0.13143,-13.08863 0.25525,-2.86034 0.34051,-5.57442 0.18941,-6.03128 -0.15101,-0.45685 -0.25022,-1.89397 -0.22037,-3.19362 0.0486,-2.11552 0.12547,-1.96628 0.73413,1.42496 0.66143,3.68556 1.15636,10.12754 1.10538,14.38797 -0.024,2.00929 0.36689,3.74492 1.53422,6.81119 0.29213,0.76734 0.48592,2.45543 0.43064,3.75136 -0.0553,1.2959 0.0627,3.07674 0.26215,3.95742 0.19945,0.88069 0.30284,2.67408 0.22994,3.98532 -0.19928,3.58064 0.36056,15.21593 0.93847,19.50426 0.14781,1.09664 0.0343,1.75074 -0.31402,1.80953 -0.30011,0.0503 2.86738,0.58789 7.03877,1.19389 11.24874,1.63425 16.12525,4.14156 21.00369,10.79977 1.18361,1.61539 2.3963,4.03111 2.69492,5.36826 l 0.54287,2.43117 1.50397,-0.98279 c 2.8449,-1.85906 8.12973,-7.57333 9.97561,-10.18661 1.01678,-1.43949 2.70482,-4.73023 4.1299,-6.83927 14.50188,-19.78043 3.04817,-42.93945 2.24273,0.68396 -1.70236,1.92634 -2.66496,5.21562 -2.99126,5.88932 -1.27086,2.6237 -6.40631,8.87574 -10.71256,12.12067 l -4.51392,3.40151 -1.70795,4.66079 c -4.17367,11.38929 -11.01331,20.79771 -18.7968,25.85633 -2.86276,1.86054 -7.95509,3.91824 -10.21665,4.12829 -1.28857,0.11979 -2.55489,3.17366 -2.42119,5.83918 0.0899,1.79217 -3.14992,25.88037 -3.47456,25.83366 -0.0325,-0.005 -0.12499,-1.36173 -0.20513,-3.01565 z"
         style="fill:#000000" />
    </g>
  </g>
</svg>
